<?xml version="1.0" encoding="utf-8"?>
<!-- Generator: Adobe Illustrator 27.5.0, SVG Export Plug-In . SVG Version: 6.00 Build 0)  -->
<svg version="1.1" id="Layer_1" xmlns="http://www.w3.org/2000/svg" xmlns:xlink="http://www.w3.org/1999/xlink" x="0px" y="0px"
	 viewBox="0 0 372.655 283.411" style="enable-background:new 0 0 372.655 283.411;" xml:space="preserve">
<g>
	<g>
		<g>
			
				<rect x="42.403" y="190.658" transform="matrix(0.9726 -0.2323 0.2323 0.9726 -50.6034 16.0064)" style="fill:#1D1D1B;" width="0.492" height="64.337"/>
			<g>
				<g>
					<g>
						<g>
							<path style="fill:#FFFC0D;" d="M45.502,159.882c3.27,15.353-3.101,29.724-14.229,32.104
								c-11.125,2.377-22.795-8.141-26.064-23.495c-3.269-15.355,3.1-29.726,14.226-32.101
								C30.562,134.01,42.232,144.528,45.502,159.882z"/>
							<path style="fill:#0A0A0A;" d="M31.998,191.997c-0.227,0.061-0.453,0.113-0.685,0.166
								c-5.442,1.162-11.169-0.665-16.142-5.141c-4.949-4.467-8.553-11.029-10.139-18.494c-3.301-15.492,3.039-29.906,14.365-32.319
								c5.439-1.161,11.17,0.664,16.143,5.138c4.947,4.467,8.55,11.032,10.139,18.496C48.91,175.021,42.904,189.141,31.998,191.997z
								 M18.804,136.723c-10.713,2.807-16.604,16.744-13.417,31.73c1.572,7.389,5.133,13.887,10.031,18.297
								c4.881,4.398,10.498,6.195,15.818,5.055c11.131-2.383,17.346-16.588,14.085-31.883c-1.573-7.391-5.136-13.889-10.029-18.301
								c-4.876-4.398-10.497-6.192-15.819-5.054C19.248,136.612,19.025,136.663,18.804,136.723z"/>
						</g>
						<g>
							<path style="fill:#FFFFFF;" d="M16.89,151.554c0.705,3.329-0.513,6.406-2.731,6.877c-2.214,0.473-4.586-1.838-5.291-5.16
								c-0.707-3.328,0.512-6.404,2.729-6.88C13.811,145.92,16.181,148.233,16.89,151.554z"/>
						</g>
						<g>
							<path style="fill:#FFFFFF;" d="M13.027,165.8c0.303,1.419-0.215,2.73-1.151,2.934c-0.931,0.199-1.939-0.789-2.238-2.207
								c-0.3-1.42,0.213-2.731,1.148-2.93C11.72,163.398,12.725,164.386,13.027,165.8z"/>
						</g>
					</g>
					<g>
						<polygon style="fill:#E270AD;" points="35.205,190.314 34.697,192.733 37.375,192.165 						"/>
						<path style="fill:#0A0A0A;" d="M37.422,192.339c-0.006,0.002-0.008,0-0.008,0l-2.675,0.57c-0.063,0.017-0.125,0-0.169-0.043
							c-0.045-0.045-0.066-0.107-0.053-0.168l0.514-2.426c0.01-0.058,0.055-0.111,0.114-0.133c0.069-0.02,0.132-0.005,0.179,0.034
							l2.164,1.851c0.053,0.043,0.076,0.117,0.061,0.184C37.534,192.273,37.485,192.324,37.422,192.339z M34.934,192.5l2.038-0.438
							l-1.649-1.412L34.934,192.5z"/>
					</g>
				</g>
				<g style="opacity:0.35;">
					<path style="fill:#E270AD;" d="M20.793,136.167c7.385,1.929,17.689,8.053,20.563,27.008
						c4.583,30.164-26.967,28.708-34.854,9.939c4.408,12.774,14.808,20.996,24.772,18.872c11.128-2.38,17.498-16.751,14.229-32.104
						C42.366,145.151,31.493,134.877,20.793,136.167z"/>
				</g>
			</g>
		</g>
		<g>
			
				<rect x="137.884" y="128.783" transform="matrix(1 -0.0053 0.0053 1 -0.9429 0.7351)" style="fill:#1D1D1B;" width="0.755" height="99.083"/>
			<g>
				<g>
					<g>
						<g>
							<path style="fill:#AD9ACE;" d="M168.593,82.513c-0.598,29.056-18.166,52.271-39.235,51.845
								c-21.069-0.417-37.654-24.314-37.046-53.379c0.604-29.069,18.163-52.283,39.231-51.858
								C152.612,29.542,169.198,53.447,168.593,82.513z"/>
							<path style="fill:#0A0A0A;" d="M130.659,134.697c-0.432,0.012-0.867,0.009-1.304,0.004
								c-10.303-0.208-19.858-5.927-26.926-16.098c-7.033-10.147-10.752-23.503-10.457-37.634
								c0.608-29.325,18.138-52.628,39.579-52.185c10.299,0.208,19.865,5.923,26.934,16.094
								c7.023,10.145,10.743,23.506,10.445,37.635C168.339,111.24,151.529,134.159,130.659,134.697z M130.267,29.458
								c-20.508,0.527-37.027,23.161-37.624,51.524c-0.287,13.984,3.379,27.209,10.349,37.236
								c6.932,9.991,16.303,15.609,26.375,15.808c21.078,0.411,38.295-22.568,38.887-51.524c0.292-13.987-3.381-27.21-10.338-37.238
								c-6.928-9.99-16.302-15.604-26.376-15.806C131.108,29.445,130.69,29.445,130.267,29.458z"/>
						</g>
						<g>
							<path style="fill:#FFFFFF;" d="M120.531,55.387c-0.134,6.298-3.63,11.33-7.825,11.243c-4.197-0.083-7.497-5.254-7.364-11.544
								c0.139-6.3,3.633-11.329,7.828-11.25C117.366,43.925,120.663,49.095,120.531,55.387z"/>
						</g>
						<g>
							<path style="fill:#FFFFFF;" d="M107.54,79.436c-0.053,2.688-1.542,4.83-3.319,4.802c-1.755-0.037-3.152-2.248-3.098-4.927
								c0.063-2.687,1.539-4.832,3.311-4.799C106.203,74.553,107.595,76.758,107.54,79.436z"/>
						</g>
					</g>
					<g>
						<polygon style="fill:#E270AD;" points="137.151,133.009 135.214,137.167 140.277,137.271 						"/>
						<path style="fill:#0A0A0A;" d="M140.286,137.605c-0.005-0.001-0.012-0.007-0.012-0.007l-5.063-0.104
							c-0.119,0.004-0.225-0.048-0.281-0.146c-0.063-0.103-0.075-0.216-0.027-0.328l1.956-4.15c0.041-0.104,0.145-0.179,0.266-0.191
							c0.128-0.003,0.233,0.039,0.3,0.133l3.126,4.253c0.074,0.101,0.082,0.249,0.026,0.355
							C140.526,137.534,140.417,137.602,140.286,137.605z M135.739,136.835l3.864,0.08l-2.386-3.247L135.739,136.835z"/>
					</g>
				</g>
				<g style="opacity:0.5;">
					<path style="fill:#AD9ACE;" d="M134.083,29.298c12.498,6.6,28.482,22.003,25.645,57.392
						c-4.505,56.323-60.767,40.337-67.043,3.17c2.544,24.897,17.809,44.117,36.673,44.498c21.069,0.426,38.638-22.79,39.235-51.845
						C169.177,54.624,153.921,31.5,134.083,29.298z"/>
				</g>
			</g>
		</g>
		<g>
			
				<rect x="203.176" y="116.604" transform="matrix(0.9997 -0.0239 0.0239 0.9997 -4.1345 4.9109)" style="fill:#1D1D1B;" width="0.902" height="118.05"/>
			<g>
				<g>
					<g>
						<g>
							<path style="fill:#CADC40;" d="M233.061,60.665c-0.074,30.318-17.946,54.863-39.927,54.829
								c-21.975-0.034-39.73-24.646-39.655-54.965c0.074-30.327,17.941-54.871,39.92-54.833
								C215.381,5.734,233.137,30.341,233.061,60.665z"/>
							<path style="fill:#0A0A0A;" d="M194.496,115.815c-0.447,0.019-0.898,0.028-1.357,0.03c-10.75-0.02-20.821-5.799-28.39-16.272
								c-7.524-10.448-11.656-24.306-11.619-39.05c0.07-30.594,17.911-55.232,40.268-55.177c10.755,0.018,20.834,5.796,28.4,16.269
								c7.521,10.444,11.656,24.307,11.616,39.047C233.339,90.631,216.25,114.855,194.496,115.815z M192.071,6.07
								c-21.374,0.944-38.168,24.863-38.244,54.452c-0.033,14.593,4.049,28.314,11.499,38.638
								c7.428,10.285,17.307,15.962,27.813,15.979c21.985,0.023,39.5-24.268,39.565-54.476c0.038-14.594-4.045-28.31-11.489-38.636
								c-7.42-10.287-17.305-15.962-27.816-15.977C192.959,6.045,192.52,6.051,192.071,6.07z"/>
						</g>
						<g>
							<path style="fill:#FFFFFF;" d="M182.419,33.295c-0.017,6.575-3.569,11.889-7.952,11.876
								c-4.372-0.005-7.909-5.335-7.89-11.897c0.015-6.569,3.57-11.883,7.952-11.881C178.895,21.406,182.439,26.736,182.419,33.295z
								"/>
						</g>
						<g>
							<path style="fill:#FFFFFF;" d="M169.33,58.626c-0.002,2.804-1.517,5.068-3.365,5.071c-1.834-0.004-3.337-2.278-3.329-5.078
								c0.013-2.802,1.508-5.071,3.363-5.066C167.846,53.561,169.341,55.832,169.33,58.626z"/>
						</g>
					</g>
					<g>
						<polygon style="fill:#E270AD;" points="201.24,113.936 199.297,118.302 204.585,118.312 						"/>
						<path style="fill:#0A0A0A;" d="M204.6,118.665c-0.011,0-0.015-0.007-0.015-0.007l-5.286-0.011
							c-0.121,0.006-0.232-0.054-0.297-0.15c-0.064-0.102-0.079-0.226-0.034-0.338l1.963-4.367c0.039-0.111,0.146-0.192,0.264-0.205
							c0.141-0.006,0.252,0.041,0.321,0.134l3.343,4.378c0.079,0.103,0.093,0.251,0.032,0.369
							C204.84,118.583,204.73,118.658,204.6,118.665z M199.837,117.95l4.032,0.007l-2.546-3.337L199.837,117.95z"/>
					</g>
				</g>
				<g>
					<path style="fill:#CADC40;" d="M196.055,5.83c13.157,6.647,30.127,22.402,27.838,59.366
						c-3.614,58.824-62.595,43.228-69.859,4.584c3.129,25.916,19.417,45.673,39.102,45.714c21.98,0.034,39.853-24.511,39.927-54.829
						C233.137,31.573,216.788,7.75,196.055,5.83z"/>
				</g>
			</g>
		</g>
		<g>
			<polygon style="fill:#1D1D1B;" points="253.378,227.671 252.914,227.626 264.417,97.22 264.88,97.265 			"/>
			<g>
				<g>
					<g>
						<g>
							<path style="fill:#E20613;" d="M290.797,61.394c-2.604,20.69-16.874,35.94-31.875,34.064
								c-14.999-1.876-25.046-20.171-22.44-40.866c2.608-20.694,16.874-35.942,31.871-34.064
								C283.355,22.404,293.401,40.7,290.797,61.394z"/>
							<path style="fill:#0A0A0A;" d="M259.826,95.792c-0.311-0.024-0.62-0.059-0.934-0.095
								c-7.333-0.918-13.724-5.713-18.008-13.501c-4.258-7.765-5.911-17.573-4.644-27.634c2.629-20.879,16.881-36.196,32.145-34.275
								c7.332,0.92,13.727,5.714,18.011,13.499c4.253,7.766,5.907,17.577,4.64,27.636C288.462,81.875,274.756,96.97,259.826,95.792z
								 M267.417,20.671c-14.669-1.157-28.149,13.755-30.696,33.95c-1.255,9.957,0.374,19.67,4.593,27.342
								c4.202,7.648,10.469,12.357,17.64,13.253c15.008,1.87,29.011-13.239,31.601-33.853c1.255-9.961-0.374-19.67-4.588-27.345
								c-4.199-7.649-10.464-12.354-17.641-13.251C268.02,20.728,267.721,20.695,267.417,20.671z"/>
						</g>
						<g>
							<path style="fill:#FFFFFF;" d="M258.534,38.445c-0.566,4.484-3.44,7.813-6.431,7.435c-2.984-0.373-4.952-4.31-4.384-8.787
								c0.566-4.484,3.439-7.811,6.429-7.44C257.132,30.031,259.097,33.968,258.534,38.445z"/>
						</g>
						<g>
							<path style="fill:#FFFFFF;" d="M247.466,54.634c-0.241,1.911-1.464,3.331-2.726,3.176c-1.253-0.158-2.088-1.837-1.846-3.746
								c0.245-1.914,1.46-3.335,2.722-3.177C246.875,51.047,247.704,52.724,247.466,54.634z"/>
						</g>
					</g>
					<g>
						<polygon style="fill:#E270AD;" points="264.584,95.077 262.893,97.894 266.499,98.346 						"/>
						<path style="fill:#0A0A0A;" d="M266.48,98.589c-0.01-0.001-0.01-0.005-0.01-0.005l-3.606-0.454
							c-0.084-0.006-0.154-0.055-0.189-0.127c-0.036-0.075-0.038-0.161,0.005-0.234l1.705-2.818
							c0.038-0.068,0.116-0.116,0.201-0.116c0.096,0.007,0.166,0.051,0.208,0.119l1.91,3.27c0.044,0.078,0.04,0.18-0.008,0.255
							C266.649,98.554,266.567,98.596,266.48,98.589z M263.288,97.7l2.75,0.343l-1.454-2.492L263.288,97.7z"/>
					</g>
				</g>
				<g style="opacity:0.35;">
					<path style="fill:#6C2E2D;" d="M270.156,20.842c8.42,5.646,18.675,17.831,14.002,42.869
						c-7.428,39.852-46.378,24.238-48.077-2.755c-0.048,17.955,9.409,32.814,22.841,34.501
						c15.001,1.876,29.271-13.374,31.875-34.064C293.298,41.541,284.145,23.9,270.156,20.842z"/>
				</g>
			</g>
		</g>
		<g>
			
				<rect x="86.243" y="119.309" transform="matrix(0.9948 -0.102 0.102 0.9948 -17.2645 9.7441)" style="fill:#1D1D1B;" width="0.832" height="108.799"/>
			<g>
				<g>
					<g>
						<g>
							<path style="fill:#FFFC0D;" d="M105.713,68.87c1.996,26.469-11.936,49.11-31.125,50.575
								c-19.182,1.462-36.354-18.812-38.352-45.283C34.238,47.687,48.17,25.048,67.354,23.591
								C86.539,22.125,103.713,42.397,105.713,68.87z"/>
							<path style="fill:#0A0A0A;" d="M75.801,119.629c-0.394,0.047-0.787,0.085-1.186,0.121
								c-9.384,0.713-18.566-3.646-25.885-12.273c-7.281-8.607-11.832-20.421-12.799-33.291c-2.018-26.71,11.873-49.428,31.4-50.904
								c9.379-0.712,18.57,3.646,25.889,12.27c7.277,8.608,11.826,20.426,12.796,33.294
								C107.989,95.011,94.725,117.312,75.801,119.629z M66.221,24.005c-18.59,2.277-31.623,24.296-29.678,50.131
								c0.959,12.739,5.453,24.438,12.662,32.938c7.181,8.477,16.189,12.763,25.362,12.06c19.194-1.473,32.83-23.869,30.832-50.239
								c-0.96-12.742-5.457-24.44-12.657-32.944c-7.176-8.476-16.188-12.756-25.365-12.054
								C66.989,23.922,66.605,23.958,66.221,24.005z"/>
						</g>
						<g>
							<path style="fill:#FFFFFF;" d="M59.65,48.426c0.427,5.738-2.311,10.619-6.137,10.906c-3.817,0.292-7.269-4.119-7.698-9.848
								c-0.429-5.735,2.31-10.615,6.132-10.91C55.766,38.287,59.215,42.7,59.65,48.426z"/>
						</g>
						<g>
							<path style="fill:#FFFFFF;" d="M49.947,71.426c0.188,2.447-0.979,4.526-2.595,4.654c-1.604,0.123-3.069-1.762-3.251-4.205
								c-0.18-2.447,0.976-4.528,2.588-4.651C48.301,67.104,49.762,68.986,49.947,71.426z"/>
						</g>
					</g>
					<g>
						<polygon style="fill:#E270AD;" points="81.556,117.533 80.157,121.474 84.774,121.127 						"/>
						<path style="fill:#0A0A0A;" d="M84.813,121.433c-0.012,0.002-0.014-0.004-0.014-0.004l-4.611,0.35
							c-0.107,0.012-0.209-0.029-0.272-0.111c-0.065-0.084-0.088-0.193-0.053-0.296l1.413-3.944
							c0.029-0.096,0.116-0.176,0.221-0.199c0.12-0.015,0.222,0.021,0.292,0.099l3.206,3.591c0.08,0.086,0.102,0.215,0.061,0.321
							C85.016,121.345,84.922,121.419,84.813,121.433z M80.605,121.135l3.516-0.272l-2.445-2.741L80.605,121.135z"/>
					</g>
				</g>
				<g style="opacity:0.35;">
					<path style="fill:#E270AD;" d="M69.68,23.525c11.938,4.907,27.818,17.505,28.337,49.921c0.842,51.59-51.7,41.996-60.664,8.755
						c4.491,22.407,20.056,38.543,37.235,37.244c19.189-1.465,33.121-24.106,31.125-50.575
						C103.796,43.472,87.904,23.791,69.68,23.525z"/>
				</g>
			</g>
		</g>
		<g>
			
				<rect x="63.843" y="158.736" transform="matrix(0.992 -0.1259 0.1259 0.992 -23.3105 9.5694)" style="fill:#1D1D1B;" width="0.466" height="61.048"/>
			<g>
				<g>
					<g>
						<g>
							<path style="fill:#FDB13B;" d="M75.577,128.418c1.773,17.818-7.265,33.312-20.185,34.603
								c-12.918,1.297-24.823-12.102-26.591-29.926c-1.771-17.826,7.262-33.318,20.181-34.609
								C61.902,97.191,73.807,110.594,75.577,128.418z"/>
							<path style="fill:#0A0A0A;" d="M56.213,163.132c-0.262,0.039-0.529,0.068-0.797,0.1c-6.318,0.631-12.584-2.164-17.655-7.865
								c-5.048-5.69-8.308-13.586-9.167-22.253c-1.787-17.982,7.221-33.528,20.369-34.835c6.315-0.631,12.588,2.161,17.661,7.862
								c5.042,5.689,8.302,13.588,9.159,22.253C77.535,146.01,68.939,161.267,56.213,163.132z M48.227,98.785
								c-12.506,1.833-20.945,16.894-19.222,34.288c0.854,8.575,4.069,16.396,9.069,22.017c4.979,5.601,11.123,8.348,17.299,7.729
								c12.924-1.301,21.765-16.626,19.996-34.381c-0.853-8.577-4.072-16.396-9.067-22.019c-4.974-5.601-11.121-8.345-17.297-7.727
								C48.741,98.715,48.485,98.746,48.227,98.785z"/>
						</g>
						<g>
							<path style="fill:#FFFFFF;" d="M44.18,115.363c0.381,3.862-1.387,7.198-3.959,7.453c-2.572,0.259-4.973-2.662-5.354-6.519
								c-0.381-3.864,1.389-7.198,3.959-7.458C41.4,108.584,43.797,111.505,44.18,115.363z"/>
						</g>
						<g>
							<path style="fill:#FFFFFF;" d="M38.002,131.031c0.168,1.648-0.586,3.067-1.674,3.181c-1.078,0.106-2.096-1.142-2.259-2.786
								c-0.161-1.647,0.586-3.069,1.673-3.179C36.826,128.142,37.84,129.388,38.002,131.031z"/>
						</g>
					</g>
					<g>
						<polygon style="fill:#E270AD;" points="60.061,161.622 59.182,164.308 62.286,163.997 						"/>
						<path style="fill:#0A0A0A;" d="M62.316,164.203c-0.004,0-0.008-0.004-0.008-0.004l-3.104,0.311
							c-0.073,0.01-0.14-0.014-0.183-0.069c-0.046-0.059-0.063-0.126-0.039-0.198l0.889-2.683c0.019-0.067,0.076-0.12,0.148-0.138
							c0.078-0.012,0.146,0.008,0.195,0.061l2.224,2.371c0.052,0.056,0.068,0.146,0.042,0.217
							C62.457,164.141,62.396,164.191,62.316,164.203z M59.479,164.067l2.369-0.236l-1.697-1.812L59.479,164.067z"/>
					</g>
				</g>
				<g>
					<path style="fill:#FDB13B;" d="M50.549,98.406c8.131,3.118,19.043,11.363,19.912,33.22
						c1.391,34.785-34.201,29.146-40.779,6.874c3.391,15.042,14.143,25.676,25.711,24.521c12.92-1.291,21.958-16.785,20.185-34.603
						C73.881,111.315,62.847,98.293,50.549,98.406z"/>
				</g>
			</g>
		</g>
		<g>
			<polygon style="fill:#1D1D1B;" points="179.014,228.9 178.338,228.976 168.14,140.622 168.814,140.54 			"/>
			<g>
				<g>
					<g>
						<g>
							<path style="fill:#FDB13B;" d="M191.285,96.302c2.305,25.986-11.107,48.416-29.949,50.096
								c-18.84,1.686-35.975-18.018-38.271-44.015c-2.3-25.997,11.101-48.427,29.941-50.106
								C171.85,50.595,188.984,70.306,191.285,96.302z"/>
							<path style="fill:#0A0A0A;" d="M162.531,146.572c-0.383,0.053-0.773,0.092-1.165,0.132
								c-9.214,0.82-18.298-3.349-25.597-11.734c-7.266-8.368-11.891-19.922-13.006-32.562
								c-2.322-26.226,11.043-48.733,30.217-50.432c9.211-0.82,18.305,3.346,25.608,11.73c7.257,8.367,11.883,19.926,12.996,32.564
								C193.859,121.96,181.1,144.055,162.531,146.572z M151.9,52.702c-18.248,2.474-30.778,24.284-28.539,49.651
								c1.11,12.507,5.674,23.951,12.869,32.217c7.165,8.238,16.074,12.335,25.082,11.53c18.848-1.693,31.968-23.88,29.667-49.775
								c-1.106-12.509-5.677-23.95-12.862-32.22c-7.159-8.237-16.072-12.332-25.079-11.528
								C152.652,52.609,152.278,52.65,151.9,52.702z"/>
						</g>
						<g>
							<path style="fill:#FFFFFF;" d="M145.745,76.791c0.495,5.633-2.131,10.465-5.884,10.797c-3.75,0.336-7.201-3.957-7.697-9.582
								c-0.493-5.636,2.136-10.465,5.885-10.804C141.805,66.872,145.248,71.164,145.745,76.791z"/>
						</g>
						<g>
							<path style="fill:#FFFFFF;" d="M136.502,99.52c0.217,2.402-0.902,4.459-2.488,4.607c-1.572,0.139-3.037-1.696-3.248-4.094
								c-0.207-2.403,0.902-4.462,2.485-4.605C134.833,95.293,136.291,97.125,136.502,99.52z"/>
						</g>
					</g>
					<g>
						<polygon style="fill:#E270AD;" points="168.16,144.432 166.836,148.331 171.365,147.928 						"/>
						<path style="fill:#0A0A0A;" d="M171.404,148.227c-0.004,0-0.01-0.005-0.01-0.005l-4.529,0.402
							c-0.105,0.014-0.202-0.022-0.264-0.103c-0.066-0.087-0.09-0.185-0.055-0.291l1.338-3.893c0.027-0.097,0.111-0.174,0.217-0.198
							c0.115-0.017,0.214,0.013,0.283,0.09l3.204,3.49c0.075,0.082,0.097,0.215,0.058,0.316
							C171.611,148.139,171.521,148.211,171.404,148.227z M167.273,147.984l3.456-0.307l-2.446-2.665L167.273,147.984z"/>
					</g>
				</g>
				<g>
					<path style="fill:#FDB13B;" d="M155.291,52.187c11.796,4.669,27.566,16.852,28.488,48.708
						c1.483,50.698-50.281,41.928-59.516,9.376c4.703,21.967,20.202,37.627,37.072,36.125c18.843-1.679,32.254-24.109,29.949-50.096
						C189.081,71.357,173.209,52.215,155.291,52.187z"/>
				</g>
			</g>
		</g>
		<g>
			
				<rect x="303.59" y="212.352" transform="matrix(0.2395 -0.9709 0.9709 0.2395 47.6969 486.0611)" style="fill:#1D1D1B;" width="61.048" height="0.465"/>
			<g>
				<g>
					<g>
						<g>
							<path style="fill:#AD9ACE;" d="M366.697,159.932c-4.744,17.266-18.743,28.48-31.265,25.045
								c-12.522-3.43-18.821-20.209-14.069-37.48c4.75-17.271,18.743-28.487,31.264-25.053
								C365.149,125.876,371.447,142.661,366.697,159.932z"/>
							<path style="fill:#0A0A0A;" d="M336.159,185.376c-0.26-0.059-0.52-0.126-0.779-0.194c-6.123-1.68-10.968-6.539-13.653-13.682
								c-2.669-7.123-2.874-15.662-0.564-24.059c4.791-17.424,18.78-28.698,31.521-25.195c6.12,1.68,10.972,6.537,13.658,13.68
								c2.664,7.121,2.868,15.663,0.558,24.059C362.208,177.053,348.707,188.206,336.159,185.376z M351.815,122.453
								c-12.33-2.781-25.615,8.244-30.254,25.098c-2.283,8.31-2.09,16.763,0.559,23.805c2.632,7.015,7.382,11.785,13.368,13.425
								c12.528,3.428,26.282-7.699,31.008-24.906c2.286-8.311,2.089-16.765-0.553-23.805c-2.63-7.013-7.382-11.782-13.369-13.424
								C352.318,122.573,352.069,122.509,351.815,122.453z"/>
						</g>
						<g>
							<path style="fill:#FFFFFF;" d="M342.084,136.472c-1.031,3.741-3.879,6.22-6.372,5.533c-2.494-0.682-3.685-4.27-2.656-8.007
								c1.034-3.743,3.881-6.219,6.375-5.538C341.924,129.148,343.112,132.734,342.084,136.472z"/>
						</g>
						<g>
							<path style="fill:#FFFFFF;" d="M330.692,148.875c-0.437,1.598-1.649,2.652-2.707,2.367c-1.043-0.287-1.544-1.818-1.107-3.411
								c0.442-1.595,1.648-2.654,2.702-2.366C330.631,145.757,331.13,147.285,330.692,148.875z"/>
						</g>
					</g>
					<g>
						<polygon style="fill:#E270AD;" points="340.292,185.348 338.507,187.54 341.516,188.366 						"/>
						<path style="fill:#0A0A0A;" d="M341.471,188.567c-0.003-0.001-0.006-0.006-0.006-0.006l-3.009-0.826
							c-0.071-0.016-0.127-0.063-0.145-0.13c-0.023-0.071-0.013-0.141,0.033-0.2l1.795-2.184c0.04-0.056,0.113-0.085,0.188-0.074
							c0.077,0.018,0.134,0.059,0.159,0.125l1.225,3.013c0.029,0.071,0.012,0.161-0.038,0.216
							C341.625,188.56,341.549,188.584,341.471,188.567z M338.871,187.42l2.296,0.631l-0.935-2.3L338.871,187.42z"/>
					</g>
				</g>
				<g style="opacity:0.5;">
					<path style="fill:#AD9ACE;" d="M354.118,122.934c6.469,5.829,13.691,17.443,6.653,38.154
						c-11.195,32.964-42.389,14.92-40.526-8.228c-2.239,15.256,3.977,29.041,15.188,32.117c12.522,3.436,26.521-7.779,31.265-25.045
						C371.257,143.361,365.636,127.245,354.118,122.934z"/>
				</g>
			</g>
		</g>
		<g>
			
				<rect x="276.339" y="169.178" transform="matrix(0.9997 -0.023 0.023 0.9997 -4.5123 6.4028)" style="fill:#1D1D1B;" width="0.466" height="61.045"/>
			<g>
				<g>
					<g>
						<g>
							<path style="fill:#CADC40;" d="M291.793,140.251c-0.038,15.678-9.28,28.37-20.646,28.353
								c-11.363-0.018-20.545-12.745-20.506-28.423c0.038-15.682,9.277-28.374,20.643-28.355
								C282.65,111.846,291.832,124.571,291.793,140.251z"/>
							<path style="fill:#0A0A0A;" d="M271.851,168.77c-0.231,0.01-0.465,0.015-0.702,0.016c-5.559-0.011-10.767-2.999-14.681-8.415
								c-3.891-5.402-6.027-12.568-6.008-20.192c0.036-15.82,9.262-28.561,20.822-28.533c5.562,0.009,10.773,2.997,14.687,8.413
								c3.889,5.401,6.027,12.569,6.007,20.191C291.936,155.747,283.1,168.273,271.851,168.77z M270.597,112.02
								c-11.053,0.488-19.737,12.857-19.776,28.158c-0.018,7.546,2.094,14.642,5.946,19.98c3.841,5.318,8.949,8.254,14.382,8.263
								c11.369,0.013,20.426-12.55,20.46-28.17c0.02-7.546-2.092-14.64-5.941-19.979c-3.837-5.319-8.948-8.254-14.384-8.262
								C271.056,112.007,270.829,112.01,270.597,112.02z"/>
						</g>
						<g>
							<path style="fill:#FFFFFF;" d="M265.605,126.098c-0.009,3.4-1.846,6.148-4.112,6.142c-2.261-0.003-4.09-2.759-4.08-6.152
								c0.008-3.397,1.847-6.145,4.112-6.144C263.783,119.95,265.615,122.706,265.605,126.098z"/>
						</g>
						<g>
							<path style="fill:#FFFFFF;" d="M258.837,139.197c-0.001,1.45-0.784,2.621-1.74,2.622c-0.948-0.002-1.726-1.178-1.722-2.626
								c0.007-1.449,0.78-2.622,1.739-2.62C258.069,136.578,258.843,137.752,258.837,139.197z"/>
						</g>
					</g>
					<g>
						<polygon style="fill:#E270AD;" points="275.338,167.798 274.333,170.056 277.067,170.061 						"/>
						<path style="fill:#0A0A0A;" d="M277.075,170.244c-0.006,0-0.008-0.004-0.008-0.004l-2.733-0.006
							c-0.063,0.004-0.12-0.027-0.153-0.077c-0.033-0.053-0.041-0.116-0.018-0.175l1.015-2.258c0.021-0.059,0.075-0.1,0.137-0.107
							c0.072-0.003,0.13,0.02,0.166,0.069l1.729,2.264c0.041,0.053,0.048,0.13,0.017,0.191
							C277.199,170.201,277.143,170.24,277.075,170.244z M274.612,169.874l2.085,0.003l-1.316-1.726L274.612,169.874z"/>
					</g>
				</g>
				<g>
					<path style="fill:#CADC40;" d="M272.656,111.896c6.804,3.438,15.579,11.584,14.395,30.699
						c-1.869,30.419-32.368,22.354-36.125,2.371c1.618,13.402,10.041,23.619,20.22,23.639c11.366,0.018,20.608-12.675,20.646-28.353
						C291.832,125.207,283.378,112.888,272.656,111.896z"/>
				</g>
			</g>
		</g>
		<g>
			
				<rect x="76.684" y="189.244" transform="matrix(0.0189 -0.9998 0.9998 0.0189 -84.2617 293.0849)" style="fill:#1D1D1B;" width="61.045" height="0.465"/>
			<g>
				<g>
					<g>
						<g>
							<path style="fill:#E20613;" d="M131.061,121.167c-0.969,20.83-13.995,37.156-29.098,36.466
								c-15.1-0.691-26.555-18.14-25.584-38.975c0.973-20.835,13.995-37.158,29.094-36.465
								C120.576,82.883,132.03,100.332,131.061,121.167z"/>
							<path style="fill:#0A0A0A;" d="M102.891,157.894c-0.313,0-0.622-0.01-0.938-0.021c-7.383-0.338-14.131-4.616-19.014-12.042
								c-4.855-7.406-7.275-17.054-6.803-27.184c0.978-21.021,13.982-37.412,29.351-36.697c7.382,0.341,14.134,4.617,19.017,12.041
								c4.851,7.408,7.272,17.058,6.799,27.185C130.344,141.768,117.867,157.894,102.891,157.894z M104.551,82.409
								c-14.715,0-26.98,15.926-27.932,36.259c-0.468,10.025,1.92,19.579,6.729,26.896c4.791,7.293,11.408,11.495,18.628,11.824
								c15.108,0.684,27.88-15.479,28.841-36.232c0.467-10.029-1.92-19.579-6.725-26.899c-4.787-7.295-11.403-11.494-18.628-11.823
								C105.156,82.417,104.855,82.409,104.551,82.409z"/>
						</g>
						<g>
							<path style="fill:#FFFFFF;" d="M97.094,100.826c-0.213,4.514-2.815,8.059-5.826,7.917c-3.005-0.137-5.276-3.907-5.062-8.414
								c0.212-4.515,2.813-8.057,5.823-7.923C95.033,92.548,97.302,96.318,97.094,100.826z"/>
						</g>
						<g>
							<path style="fill:#FFFFFF;" d="M87.332,117.835c-0.09,1.924-1.197,3.436-2.467,3.38c-1.262-0.059-2.226-1.667-2.135-3.589
								c0.094-1.927,1.193-3.439,2.463-3.381C86.461,114.306,87.42,115.913,87.332,117.835z"/>
						</g>
					</g>
					<g>
						<polygon style="fill:#E270AD;" points="107.578,156.807 106.113,159.747 109.744,159.915 						"/>
						<path style="fill:#0A0A0A;" d="M109.744,160.16c-0.01,0-0.01-0.005-0.01-0.005l-3.631-0.169c-0.084,0-0.158-0.043-0.199-0.111
							c-0.042-0.072-0.051-0.158-0.014-0.234l1.479-2.943c0.032-0.071,0.106-0.125,0.191-0.132c0.096,0,0.17,0.038,0.217,0.103
							l2.161,3.109c0.05,0.074,0.055,0.176,0.013,0.255C109.91,160.111,109.832,160.16,109.744,160.16z M106.492,159.523
							l2.769,0.127l-1.646-2.37L106.492,159.523z"/>
					</g>
				</g>
				<g style="opacity:0.35;">
					<path style="fill:#6C2E2D;" d="M107.295,82.364c8.838,4.967,20.02,16.307,17.33,41.635
						c-4.271,40.312-44.328,27.81-48.145,1.034c1.363,17.903,11.96,31.972,25.482,32.599c15.103,0.69,28.129-15.635,29.098-36.466
						C131.993,101.178,121.48,84.313,107.295,82.364z"/>
				</g>
			</g>
		</g>
		<g>
			
				<rect x="275.022" y="199.884" transform="matrix(0.138 -0.9904 0.9904 0.138 65.1755 475.1209)" style="fill:#1D1D1B;" width="61.045" height="0.467"/>
			<g>
				<g>
					<g>
						<g>
							<path style="fill:#FBAACB;" d="M341.896,131.102c-4.518,23.237-21.838,39.43-38.683,36.169
								c-16.851-3.26-26.847-24.743-22.327-47.984c4.52-23.242,21.83-39.435,38.68-36.17
								C336.411,86.375,346.408,107.861,341.896,131.102z"/>
							<path style="fill:#0A0A0A;" d="M304.207,167.718c-0.348-0.052-0.695-0.111-1.048-0.178
								c-8.238-1.594-15.113-7.509-19.373-16.653c-4.238-9.119-5.364-20.354-3.17-31.654c4.557-23.45,21.862-39.718,39.004-36.387
								c8.239,1.596,15.115,7.509,19.378,16.653c4.229,9.117,5.361,20.354,3.162,31.651
								C337.695,154.122,321.03,170.182,304.207,167.718z M318.493,83.208c-16.53-2.421-32.931,13.448-37.337,36.129
								c-2.176,11.184-1.066,22.307,3.129,31.316c4.183,8.981,10.922,14.79,18.977,16.349c16.858,3.255,33.861-12.799,38.358-35.954
								c2.168-11.185,1.062-22.306-3.128-31.319c-4.177-8.979-10.919-14.786-18.979-16.345
								C319.172,83.316,318.837,83.258,318.493,83.208z"/>
						</g>
						<g>
							<path style="fill:#FFFFFF;" d="M307.086,102.664c-0.982,5.037-4.492,8.589-7.843,7.936
								c-3.357-0.647-5.284-5.255-4.306-10.285c0.979-5.034,4.489-8.587,7.845-7.939C306.132,93.028,308.063,97.636,307.086,102.664
								z"/>
						</g>
						<g>
							<path style="fill:#FFFFFF;" d="M293.323,120.164c-0.418,2.149-1.909,3.662-3.33,3.391c-1.407-0.273-2.223-2.237-1.805-4.383
								c0.42-2.146,1.901-3.665,3.321-3.392C292.924,116.058,293.738,118.021,293.323,120.164z"/>
						</g>
					</g>
					<g>
						<polygon style="fill:#E270AD;" points="309.654,167.27 307.521,170.334 311.569,171.121 						"/>
						<path style="fill:#0A0A0A;" d="M311.53,171.39c-0.006,0-0.011-0.006-0.011-0.006l-4.051-0.787
							c-0.092-0.015-0.169-0.074-0.2-0.16c-0.041-0.083-0.034-0.184,0.023-0.26l2.142-3.064c0.05-0.074,0.142-0.124,0.236-0.117
							c0.107,0.016,0.187,0.067,0.23,0.15l1.914,3.848c0.045,0.092,0.035,0.208-0.025,0.29
							C311.727,171.365,311.629,171.406,311.53,171.39z M307.984,170.142l3.09,0.597l-1.459-2.933L307.984,170.142z"/>
					</g>
				</g>
				<g style="opacity:0.35;">
					<path style="fill:#E270AD;" d="M321.583,83.609c9.108,7.03,19.801,21.609,12.612,49.618
						c-11.431,44.576-54.364,23.942-54.245-6.76c-1.413,20.332,8.171,37.878,23.263,40.805
						c16.845,3.262,34.165-12.932,38.683-36.169C346.229,108.804,337.195,88.131,321.583,83.609z"/>
				</g>
			</g>
		</g>
		<g>
			
				<rect x="228.295" y="163.305" transform="matrix(0.9997 -0.0226 0.0226 0.9997 -4.3956 5.2153)" style="fill:#1D1D1B;" width="0.517" height="67.573"/>
			<g>
				<g>
					<g>
						<g>
							<path style="fill:#FBAACB;" d="M255.993,115.225c-0.803,26.191-16.846,46.964-35.829,46.396
								c-18.989-0.564-33.731-22.256-32.929-48.453c0.804-26.196,16.836-46.967,35.825-46.396
								C242.045,67.335,256.789,89.03,255.993,115.225z"/>
							<path style="fill:#0A0A0A;" d="M221.33,161.932c-0.389,0.006-0.779,0.002-1.177-0.007
								c-9.284-0.277-17.848-5.516-24.128-14.748c-6.252-9.21-9.48-21.283-9.094-34.019c0.808-26.43,16.82-47.282,36.141-46.691
								c9.286,0.277,17.85,5.515,24.134,14.747c6.242,9.208,9.477,21.284,9.084,34.017
								C255.498,141.122,240.148,161.632,221.33,161.932z M221.906,67.061c-18.491,0.294-33.587,20.549-34.366,46.114
								c-0.388,12.606,2.804,24.56,8.989,33.657c6.167,9.068,14.563,14.216,23.64,14.485c18.997,0.559,34.718-20.005,35.514-46.103
								c0.378-12.605-2.809-24.559-8.989-33.661c-6.16-9.067-14.559-14.212-23.643-14.481
								C222.666,67.059,222.29,67.055,221.906,67.061z"/>
						</g>
						<g>
							<path style="fill:#FFFFFF;" d="M212.903,90.348c-0.178,5.677-3.38,10.183-7.156,10.065c-3.782-0.11-6.708-4.802-6.533-10.471
								c0.174-5.673,3.377-10.18,7.158-10.07C210.146,79.989,213.076,84.68,212.903,90.348z"/>
						</g>
						<g>
							<path style="fill:#FFFFFF;" d="M200.98,111.914c-0.075,2.422-1.435,4.34-3.035,4.297c-1.587-0.047-2.826-2.048-2.751-4.467
								c0.076-2.419,1.425-4.342,3.025-4.297C199.814,107.499,201.053,109.5,200.98,111.914z"/>
						</g>
					</g>
					<g>
						<polygon style="fill:#E270AD;" points="227.201,160.474 225.415,164.202 229.979,164.339 						"/>
						<path style="fill:#0A0A0A;" d="M229.983,164.642c-0.006,0-0.013-0.004-0.013-0.004l-4.565-0.141
							c-0.103,0.001-0.198-0.051-0.247-0.139c-0.06-0.084-0.07-0.195-0.021-0.289l1.796-3.729c0.04-0.09,0.132-0.16,0.237-0.17
							c0.118-0.002,0.215,0.041,0.277,0.124l2.775,3.864c0.065,0.092,0.075,0.22,0.024,0.32
							C230.193,164.579,230.094,164.641,229.983,164.642z M225.888,163.909l3.482,0.103l-2.115-2.943L225.888,163.909z"/>
					</g>
				</g>
				<g style="opacity:0.35;">
					<path style="fill:#E270AD;" d="M225.352,66.95c11.201,6.061,25.477,20.087,22.605,51.966
						c-4.56,50.732-55.137,35.826-60.467,2.263c2.072,22.464,15.664,39.929,32.673,40.442c18.983,0.568,35.026-20.204,35.829-46.396
						C256.761,90.093,243.214,69.114,225.352,66.95z"/>
				</g>
			</g>
		</g>
	</g>
	<g>
		<g>
			<path style="fill:#1D1D1B;" d="M43.172,251.528c-3.33-2.354-6.693-4.634-10.091-6.836c-3.396-2.204-6.726-4.591-9.989-7.165
				l-0.428-0.428c0.201-1.263,0.57-2.465,1.109-3.608c0.538-1.144,1.152-2.24,1.842-3.292c0.69-1.051,1.421-2.089,2.194-3.114
				c0.772-1.026,1.505-2.095,2.194-3.204c0.303-0.201,0.647-0.303,1.034-0.303c0.304,0,0.58,0.068,0.833,0.203
				c1.782,0.89,3.484,1.895,5.107,3.013c1.623,1.119,3.217,2.283,4.78,3.494c1.563,1.212,3.12,2.427,4.667,3.645
				c1.547,1.22,3.136,2.384,4.768,3.495c1.648-3.078,3.548-5.925,5.701-8.54c2.152-2.613,4.33-5.267,6.533-7.958
				c0.201-0.236,0.479-0.353,0.832-0.353c0.521,0,0.967,0.21,1.337,0.63c1.177,0.64,2.262,1.374,3.254,2.207
				c0.993,0.834,1.955,1.703,2.889,2.611c0.934,0.908,1.858,1.846,2.774,2.813c0.917,0.967,1.854,1.895,2.813,2.787
				c-0.235,0.623-0.424,1.262-0.566,1.917c-0.145,0.656-0.35,1.296-0.619,1.917c-4.726,7.063-9.413,14.146-14.063,21.253
				c-4.65,7.105-9.455,14.053-14.416,20.849c-0.337,0.335-0.715,0.505-1.136,0.505c-0.235,0-0.387-0.018-0.454-0.051
				c-2.102-0.893-4.145-1.839-6.129-2.839c-1.984-0.999-3.919-2.174-5.803-3.518c-0.235-0.135-0.458-0.287-0.668-0.454
				c-0.211-0.17-0.315-0.395-0.315-0.683c0-0.167,0.017-0.269,0.05-0.302c1.061-1.38,2.023-2.833,2.889-4.363
				c0.865-1.532,1.678-3.1,2.434-4.705c0.758-1.605,1.506-3.217,2.246-4.83C41.515,254.705,42.314,253.107,43.172,251.528z"/>
			<path style="fill:#1D1D1B;" d="M108.379,249.813c0,2.134-0.328,4.213-0.984,6.229c-0.655,2.019-1.673,3.825-3.052,5.423
				c-1.379,1.598-3.11,2.882-5.196,3.848c-2.086,0.967-4.558,1.451-7.416,1.451c-2.994,0-5.68-0.51-8.06-1.527
				c-2.38-1.017-4.394-2.379-6.042-4.086c-1.648-1.707-2.913-3.671-3.796-5.89c-0.884-2.222-1.325-4.55-1.325-6.987
				c0-2.104,0.404-4.145,1.212-6.131c0.807-1.984,1.963-3.749,3.468-5.297c1.506-1.547,3.287-2.795,5.348-3.746
				c2.061-0.949,4.369-1.426,6.925-1.426c2.993,0,5.663,0.492,8.009,1.477c2.346,0.983,4.326,2.312,5.941,3.984
				c1.613,1.675,2.846,3.605,3.695,5.79C107.953,245.112,108.379,247.408,108.379,249.813z M87.291,238.561
				c-0.69,0-1.414,0.102-2.17,0.303c-0.756,0.202-1.446,0.501-2.068,0.896c-0.622,0.396-1.131,0.87-1.525,1.426
				c-0.396,0.555-0.594,1.177-0.594,1.866c0,0.624,0.164,1.165,0.492,1.628c0.328,0.462,0.748,0.84,1.262,1.134
				c0.512,0.294,1.071,0.518,1.678,0.67c0.605,0.151,1.201,0.226,1.79,0.226c0.655,0,1.329-0.1,2.019-0.302
				c0.689-0.203,1.316-0.5,1.879-0.895c0.564-0.396,1.018-0.888,1.362-1.477c0.345-0.588,0.517-1.261,0.517-2.018
				c0-0.623-0.146-1.147-0.442-1.576c-0.294-0.429-0.672-0.781-1.135-1.061c-0.463-0.276-0.967-0.482-1.514-0.616
				C88.295,238.629,87.778,238.561,87.291,238.561z"/>
			<path style="fill:#1D1D1B;" d="M139.432,267.266c-0.908,0-1.801-0.022-2.674-0.073c-0.875-0.051-1.758-0.16-2.648-0.33
				c-0.455-0.2-0.74-0.507-0.857-0.92c-0.119-0.411-0.178-0.86-0.178-1.35c0-0.284,0.008-0.554,0.025-0.807
				c0.017-0.251,0.025-0.505,0.025-0.756c-1.446,1.563-2.926,2.668-4.439,3.315c-1.514,0.65-3.104,0.971-4.768,0.971
				c-2.136,0-4.116-0.525-5.941-1.575c-1.824-1.05-3.426-2.45-4.805-4.2c-1.379-1.748-2.455-3.754-3.229-6.017
				c-0.773-2.261-1.16-4.596-1.16-7c0.134-1.514,0.219-3.047,0.252-4.605c0.033-1.555,0.07-3.104,0.113-4.653
				c0.042-1.546,0.105-3.093,0.189-4.641c0.084-1.547,0.243-3.078,0.479-4.591c0-0.135,0.131-0.231,0.392-0.291
				c0.261-0.058,0.491-0.087,0.694-0.087c1.311,0,2.476,0.017,3.493,0.051c1.017,0.033,2.089,0.049,3.216,0.049
				c0.875,0,1.8-0.016,2.775-0.049c0.975-0.034,2.118-0.102,3.431-0.203c0.387,0.068,0.714,0.281,0.983,0.645
				c0.27,0.36,0.404,0.786,0.404,1.273c-0.69,1.648-1.178,3.16-1.464,4.54c-0.286,1.379-0.429,2.657-0.429,3.834
				c0,1.277,0.155,2.397,0.467,3.355c0.311,0.959,0.723,1.766,1.236,2.423c0.513,0.654,1.105,1.146,1.778,1.475
				c0.672,0.329,1.353,0.492,2.043,0.492c0.724,0,1.446-0.181,2.169-0.542c0.723-0.362,1.367-0.912,1.93-1.653
				c0.564-0.739,1.018-1.66,1.363-2.762c0.344-1.102,0.517-2.409,0.517-3.922c0-1.01-0.093-2.107-0.278-3.293
				c-0.185-1.185-0.487-2.468-0.908-3.845c0.521-0.523,1.262-0.783,2.221-0.783c0.908,0,1.866,0.063,2.876,0.189
				c1.009,0.127,1.967,0.189,2.875,0.189c1.295,0,2.614-0.131,3.96-0.391c1.346-0.26,2.658-0.425,3.936-0.492
				c0.589,0.101,0.959,0.42,1.11,0.959c0.151,0.539,0.227,1.059,0.227,1.563c-0.136,3.026-0.244,5.992-0.328,8.892
				c-0.085,2.901-0.127,5.85-0.127,8.843c0,2.506,0.042,4.998,0.127,7.479c0.084,2.481,0.227,5.016,0.428,7.605
				c-1.85,0.555-3.742,0.977-5.676,1.26C143.324,267.125,141.382,267.266,139.432,267.266z"/>
			<path style="fill:#1D1D1B;" d="M214.806,255.915c-2.004,2.473-3.966,4.999-5.893,7.582c-1.925,2.582-3.61,5.393-5.057,8.436
				c-0.908,0.068-1.841,0.127-2.799,0.178c-0.959,0.051-1.943,0.076-2.953,0.076c-1.479,0-2.917-0.132-4.312-0.391
				c-1.398-0.262-2.641-0.787-3.734-1.578c-1.144-3.985-2.371-7.98-3.683-11.983c-1.312-4-2.594-8.009-3.847-12.02
				c-1.254-4.01-2.405-8.028-3.456-12.057c-1.051-4.027-1.889-8.076-2.51-12.146c0.352-0.234,0.752-0.387,1.197-0.453
				c0.445-0.068,0.912-0.102,1.4-0.102c0.925,0,1.888,0.043,2.889,0.127c0.999,0.084,1.945,0.125,2.837,0.125
				c0.791,0,1.636-0.041,2.536-0.125c0.898-0.084,1.761-0.127,2.585-0.127c0.656,0,1.273,0.059,1.855,0.177
				c0.58,0.118,1.146,0.369,1.702,0.757c0.757,1.295,1.299,2.648,1.627,4.062c0.329,1.413,0.648,2.824,0.959,4.237
				s0.697,2.8,1.161,4.161c0.461,1.362,1.215,2.634,2.257,3.811c1.193-2.271,2.283-4.595,3.268-6.976
				c0.982-2.38,2.004-4.603,3.064-6.672c2.656-0.555,5.448-0.832,8.376-0.832c1.344,0,2.673,0.071,3.984,0.214
				c1.311,0.145,2.582,0.383,3.811,0.72c0.77,0.79,1.491,1.643,2.155,2.559c0.665,0.917,1.332,1.847,2.005,2.788
				c0.674,0.94,1.354,1.887,2.044,2.838c0.69,0.95,1.428,1.837,2.22,2.661c0.52-1.194,0.946-2.422,1.273-3.683
				c0.329-1.261,0.632-2.52,0.908-3.772c0.278-1.252,0.563-2.509,0.857-3.771c0.294-1.261,0.677-2.498,1.148-3.707
				c2.993,0,5.943,0.139,8.854,0.416c2.909,0.276,5.902,0.416,8.981,0.416c0.2,0.102,0.424,0.186,0.667,0.252
				c0.244,0.067,0.467,0.156,0.67,0.266c0.2,0.109,0.381,0.256,0.54,0.441c0.16,0.185,0.257,0.436,0.292,0.756
				c-1.278,3.852-2.442,7.757-3.493,11.716c-1.053,3.963-2.146,7.915-3.279,11.857c-1.137,3.944-2.377,7.854-3.722,11.73
				c-1.347,3.876-2.942,7.641-4.794,11.288c-0.251,0.302-0.437,0.602-0.553,0.896c-0.119,0.294-0.37,0.535-0.759,0.721
				c-0.923,0.099-1.88,0.192-2.861,0.276c-0.984,0.083-1.974,0.127-2.965,0.127c-1.278,0-2.545-0.089-3.795-0.267
				c-1.253-0.175-2.468-0.5-3.646-0.972c-0.624-1.177-1.372-2.374-2.245-3.595c-0.875-1.217-1.78-2.45-2.714-3.695
				c-0.931-1.243-1.844-2.509-2.734-3.795C216.234,258.579,215.461,257.262,214.806,255.915z"/>
			<path style="fill:#1D1D1B;" d="M260.514,266.863c-0.592,0-1.229-0.025-1.918-0.073c-0.69-0.051-1.334-0.165-1.931-0.343
				c-0.596-0.175-1.105-0.428-1.527-0.756c-0.418-0.327-0.629-0.743-0.629-1.248v-15.615c0-1.647-0.043-3.169-0.127-4.565
				c-0.083-1.395-0.126-2.817-0.126-4.263c0-0.421,0.146-0.748,0.441-0.984c0.294-0.234,0.646-0.416,1.06-0.543
				c0.411-0.124,0.85-0.205,1.312-0.238c0.462-0.033,0.888-0.051,1.273-0.051c1.75,0,3.331,0.046,4.743,0.14
				c1.413,0.091,2.758,0.188,4.036,0.289c1.278,0.101,2.534,0.192,3.772,0.277c1.234,0.085,2.559,0.126,3.972,0.126
				c0.386,0,0.794,0.098,1.223,0.29c0.429,0.194,0.645,0.56,0.645,1.098c0,1.211,0.114,2.417,0.34,3.619
				c0.229,1.203,0.34,2.443,0.34,3.722c0,2.59-0.111,5.167-0.34,7.73c-0.226,2.566-0.34,5.101-0.34,7.607
				c-0.068,0.251-0.119,0.54-0.152,0.87c-0.033,0.327-0.065,0.646-0.102,0.958c-0.033,0.31-0.091,0.576-0.175,0.794
				c-0.084,0.219-0.203,0.327-0.353,0.327c-2.575,0-5.145,0.14-7.706,0.416C265.678,266.726,263.101,266.863,260.514,266.863z
				 M256.274,230.54c0-0.758,0.276-1.4,0.832-1.931c0.556-0.53,1.246-0.967,2.067-1.312c0.824-0.345,1.737-0.606,2.737-0.781
				c1.002-0.178,1.948-0.267,2.838-0.267c1.279,0,2.615,0.132,4.011,0.393c1.397,0.26,2.663,0.622,3.797,1.084
				c1.137,0.463,2.073,1.039,2.813,1.727c0.738,0.689,1.108,1.464,1.108,2.321c0,0.757-0.309,1.422-0.934,1.993
				c-0.621,0.571-1.407,1.047-2.356,1.425c-0.951,0.379-1.993,0.664-3.127,0.858c-1.137,0.192-2.199,0.289-3.191,0.289
				c-1.246,0-2.493-0.121-3.747-0.365c-1.253-0.243-2.389-0.613-3.406-1.111c-1.018-0.494-1.844-1.105-2.483-1.828
				C256.594,232.313,256.274,231.481,256.274,230.54z"/>
			<path style="fill:#1D1D1B;" d="M298.905,257.708c-0.724,0-1.273,0.319-1.651,0.956c-0.378,0.64-0.568,1.482-0.568,2.524
				c0,1.58,0.378,3.244,1.136,4.994c-0.035,0.32-0.121,0.606-0.266,0.857c-0.143,0.251-0.416,0.378-0.819,0.378
				c-1.446,0-2.885,0.064-4.313,0.19c-1.431,0.124-2.869,0.264-4.314,0.416c-1.446,0.149-2.892,0.289-4.338,0.416
				c-1.448,0.127-2.895,0.188-4.34,0.188c-0.287,0-0.53-0.103-0.73-0.314c-0.203-0.21-0.376-0.472-0.518-0.781
				c-0.143-0.312-0.238-0.646-0.289-1.01c-0.051-0.359-0.076-0.692-0.076-0.996c0-3.346,0.129-6.68,0.391-10.002
				c0.261-3.319,0.391-6.706,0.391-10.153c0-1.075,0.025-2.346,0.076-3.809c0.051-1.462,0.126-2.862,0.226-4.199
				c0.102-1.337,0.23-2.48,0.393-3.432c0.157-0.949,0.34-1.441,0.541-1.476c2.371-0.303,4.713-0.525,7.026-0.668
				c2.311-0.143,4.654-0.231,7.023-0.264c0.959,0,1.57,0.285,1.829,0.857c0.262,0.57,0.393,1.202,0.393,1.891
				c0,0.336-0.011,0.668-0.025,0.997c-0.018,0.328-0.025,0.626-0.025,0.895c1.445-0.859,2.823-1.484,4.137-1.88
				c1.312-0.395,2.588-0.593,3.833-0.593c2.892,0,5.251,0.631,7.077,1.893c1.824,1.261,3.262,3.061,4.313,5.398
				c1.05,2.337,1.773,5.167,2.169,8.487c0.396,3.323,0.593,7.068,0.593,11.238c0,0.654-0.025,1.337-0.076,2.042
				c-0.051,0.708-0.129,1.362-0.238,1.969c-0.111,0.605-0.267,1.105-0.467,1.501c-0.202,0.396-0.464,0.592-0.783,0.592
				c-2.369,0-4.754,0.018-7.151,0.05c-2.397,0.036-4.778,0.17-7.15,0.403c-0.487,0-0.85-0.218-1.086-0.654
				c0.556-1.412,0.832-2.825,0.832-4.238c0-1.345-0.268-2.458-0.807-3.341C300.714,258.15,299.933,257.708,298.905,257.708z"/>
			<path style="fill:#1D1D1B;" d="M335.077,264.996c0,1.045-0.211,1.942-0.629,2.701c-0.422,0.756-0.964,1.364-1.629,1.829
				c-0.664,0.462-1.428,0.807-2.296,1.032c-0.864,0.229-1.728,0.34-2.585,0.34c-1.042,0-2.115-0.147-3.216-0.441
				c-1.101-0.294-2.105-0.7-3.014-1.223c-0.908-0.52-1.667-1.151-2.271-1.893c-0.607-0.737-0.908-1.555-0.908-2.445
				c0-0.791,0.27-1.481,0.807-2.069c0.538-0.589,1.21-1.07,2.02-1.451c0.807-0.378,1.691-0.659,2.661-0.845
				c0.966-0.185,1.895-0.276,2.787-0.276c0.857,0,1.778,0.084,2.763,0.251c0.981,0.17,1.877,0.441,2.686,0.822
				c0.807,0.378,1.478,0.87,2.017,1.474C334.808,263.409,335.077,264.139,335.077,264.996z M340.071,222.796
				c0.977,0,1.58,0.264,1.816,0.793c0.236,0.531,0.355,1.09,0.355,1.679c-0.271,2.59-0.683,5.167-1.238,7.731
				c-0.553,2.564-1.121,5.129-1.702,7.693c-0.581,2.564-1.121,5.145-1.626,7.744c-0.505,2.599-0.842,5.208-1.01,7.833
				c0,0.69-0.215,1.183-0.644,1.474c-0.429,0.297-0.837,0.441-1.223,0.441c-1.127-0.2-2.278-0.34-3.455-0.416
				c-1.18-0.073-2.352-0.146-3.521-0.213c-1.17-0.068-2.329-0.178-3.48-0.327c-1.151-0.152-2.283-0.439-3.395-0.859
				c-0.233-0.066-0.393-0.305-0.477-0.718c-0.086-0.411-0.127-0.813-0.127-1.197c0.403-2.676,0.761-5.374,1.07-8.099
				c0.313-2.725,0.64-5.443,0.984-8.16c0.345-2.716,0.733-5.429,1.162-8.135c0.429-2.708,0.972-5.391,1.626-8.048
				c0.068-0.336,0.241-0.668,0.517-0.996c0.276-0.328,0.626-0.491,1.047-0.491c2.067,0.487,4.236,0.89,6.507,1.21
				C335.531,222.055,337.802,222.41,340.071,222.796z"/>
		</g>
		<g>
			<path style="fill:#FFFFFF;" d="M148.529,242.701c0-2.961,0.041-5.91,0.125-8.767c0.083-2.888,0.191-5.838,0.328-8.967
				c0-0.741-0.108-1.505-0.324-2.268c-0.42-1.494-1.605-2.547-3.171-2.815c-0.146-0.024-0.292-0.037-0.439-0.037
				c-0.046,0-0.091,0.002-0.137,0.004c-1.391,0.073-2.834,0.254-4.293,0.535c-1.176,0.229-2.342,0.344-3.467,0.344
				c-0.797,0-1.656-0.057-2.553-0.169c-1.109-0.14-2.186-0.209-3.198-0.209c-2.078,0-3.353,0.839-4.057,1.544
				c-0.679,0.677-0.928,1.675-0.647,2.593c0.382,1.255,0.66,2.429,0.826,3.489c0.163,1.048,0.246,2.021,0.246,2.892
				c0,1.243-0.133,2.301-0.398,3.145c-0.252,0.81-0.572,1.471-0.949,1.966c-0.322,0.424-0.658,0.718-1.025,0.903
				c-0.361,0.18-0.69,0.268-1.008,0.268c-0.292,0-0.588-0.075-0.905-0.23c-0.316-0.154-0.601-0.397-0.87-0.74
				c-0.322-0.413-0.596-0.959-0.813-1.625c-0.225-0.694-0.339-1.552-0.339-2.552c0-0.996,0.126-2.109,0.375-3.307
				c0.251-1.21,0.693-2.578,1.315-4.065c0.133-0.317,0.201-0.657,0.201-1.003c0-1.04-0.316-2.017-0.917-2.824
				c-0.667-0.896-1.573-1.468-2.618-1.651c-0.148-0.026-0.299-0.04-0.449-0.04c-0.067,0-0.134,0.003-0.2,0.008
				c-1.27,0.1-2.376,0.164-3.319,0.195c-0.944,0.033-1.84,0.05-2.686,0.05c-1.098,0-2.141-0.017-3.131-0.05
				c-1.043-0.033-2.235-0.051-3.579-0.051c-0.396,0-0.808,0.049-1.271,0.152c-1.595,0.364-2.267,1.5-2.39,2.486
				c-0.242,1.564-0.409,3.176-0.497,4.786c-0.044,0.81-0.065,1.618-0.099,2.428c-0.428-0.547-0.881-1.075-1.367-1.58
				c-1.854-1.92-4.143-3.46-6.805-4.576c-2.655-1.114-5.688-1.679-9.014-1.679c-2.922,0-5.617,0.561-8.012,1.664
				c-0.533,0.246-1.047,0.518-1.549,0.799c-0.024-0.678-0.287-1.337-0.804-1.818c-0.919-0.854-1.825-1.754-2.697-2.672
				c-0.94-0.992-1.89-1.955-2.848-2.887c-0.974-0.949-1.994-1.869-3.03-2.739c-1.024-0.86-2.149-1.636-3.348-2.313
				c-0.81-0.733-1.826-1.131-2.912-1.131c-1.113,0-2.108,0.445-2.843,1.303c-2.202,2.689-4.378,5.343-6.528,7.955
				c-1.646,1.999-3.165,4.148-4.536,6.417c-0.786-0.575-1.562-1.165-2.319-1.763c-1.554-1.223-3.115-2.441-4.684-3.657
				c-1.588-1.229-3.235-2.434-4.898-3.579c-1.713-1.181-3.536-2.258-5.359-3.168c-0.632-0.336-1.322-0.508-2.055-0.508
				c-0.895,0-1.75,0.256-2.475,0.74c-0.308,0.205-0.569,0.475-0.766,0.789c-0.646,1.041-1.341,2.054-2.062,3.012
				c-0.808,1.07-1.579,2.165-2.294,3.254c-0.753,1.149-1.432,2.363-2.02,3.61c-0.64,1.359-1.084,2.808-1.324,4.305
				c-0.131,0.821,0.14,1.657,0.729,2.246l0.429,0.429c0.071,0.072,0.149,0.141,0.229,0.202c3.31,2.612,6.736,5.068,10.184,7.305
				c2.718,1.762,5.448,3.597,8.144,5.472c-0.487,0.961-0.955,1.929-1.396,2.894c-0.737,1.607-1.48,3.209-2.234,4.808
				c-0.722,1.53-1.511,3.057-2.344,4.532c-0.793,1.398-1.686,2.749-2.653,4.015c-0.414,0.51-0.624,1.158-0.624,1.931
				c0,1.076,0.455,2.036,1.293,2.713c0.28,0.223,0.574,0.427,0.878,0.607c1.96,1.391,3.992,2.62,6.044,3.653
				c2.017,1.017,4.12,1.99,6.254,2.897c0.534,0.237,1.055,0.27,1.498,0.27c1.112,0,2.138-0.436,2.967-1.261
				c0.098-0.096,0.186-0.199,0.267-0.309c4.972-6.811,9.847-13.863,14.491-20.959c1.889-2.886,3.801-5.786,5.715-8.684
				c0.124,2.341,0.597,4.616,1.454,6.77c1.004,2.526,2.465,4.793,4.341,6.734c1.883,1.951,4.201,3.522,6.889,4.672
				c2.695,1.151,5.75,1.736,9.081,1.736c3.224,0,6.086-0.57,8.509-1.692c2.41-1.117,4.453-2.634,6.07-4.508
				c0.988-1.146,1.803-2.404,2.475-3.742c0.674,1.334,1.449,2.59,2.348,3.729c1.578,2.004,3.445,3.634,5.551,4.845
				c2.215,1.275,4.648,1.922,7.236,1.922c2.014,0,3.963-0.398,5.787-1.181c0.553-0.236,1.102-0.521,1.643-0.853
				c0.42,0.579,1.002,1.045,1.711,1.358c0.181,0.078,0.369,0.138,0.563,0.175c0.991,0.19,1.996,0.314,2.985,0.372
				c0.923,0.053,1.864,0.077,2.824,0.077c2.074,0,4.163-0.153,6.204-0.457c2.045-0.301,4.078-0.752,6.046-1.343
				c1.171-0.352,1.937-1.47,1.843-2.688c-0.199-2.551-0.342-5.071-0.422-7.492C148.57,247.659,148.529,245.171,148.529,242.701z
				 M84.726,234.93c-0.155,0.265-0.355,0.481-0.612,0.662c-0.332,0.233-0.698,0.407-1.117,0.528
				c-0.449,0.132-0.883,0.198-1.289,0.198c-0.373,0-0.764-0.05-1.16-0.148c-0.371-0.093-0.713-0.229-1.017-0.402
				c-0.186-0.106-0.323-0.228-0.446-0.51c0-0.15,0.027-0.243,0.111-0.36c0.2-0.281,0.463-0.523,0.802-0.738
				c0.396-0.251,0.849-0.446,1.345-0.578c0.535-0.142,1.04-0.216,1.501-0.216c0.276,0,0.59,0.043,0.931,0.127
				c0.295,0.074,0.557,0.179,0.797,0.322c0.143,0.086,0.248,0.183,0.302,0.249c0,0,0.015,0.048,0.015,0.161
				C84.887,234.612,84.795,234.812,84.726,234.93z"/>
			<path style="fill:#FFFFFF;" d="M339.813,214.742c-0.376-0.847-1.385-2.248-3.946-2.332c-2.221-0.377-4.471-0.726-6.69-1.039
				c-2.185-0.307-4.295-0.699-6.273-1.166c-0.195-0.046-0.396-0.068-0.596-0.068c-1.188,0-2.265,0.502-3.034,1.414
				c-0.558,0.663-0.921,1.386-1.054,2.051c-0.671,2.725-1.233,5.506-1.669,8.262c-0.436,2.744-0.83,5.508-1.174,8.213
				c-0.247,1.951-0.477,3.906-0.706,5.862c-0.375-1.369-0.813-2.653-1.333-3.813c-1.241-2.764-2.993-4.939-5.205-6.471
				c-2.26-1.559-5.138-2.352-8.554-2.352c-1.49,0-3.031,0.235-4.582,0.702c-0.345,0.105-0.694,0.221-1.047,0.354
				c-0.087-0.289-0.192-0.568-0.316-0.843c-0.325-0.715-1.384-2.382-4.232-2.382c-2.402,0.033-4.807,0.125-7.148,0.27
				c-2.359,0.146-4.78,0.375-7.303,0.699c-0.222,0.039-0.415,0.108-0.602,0.185c-0.265-0.806-0.756-1.686-1.656-2.525
				c-0.969-0.903-2.182-1.653-3.602-2.232c-1.291-0.527-2.738-0.94-4.301-1.232c-1.547-0.29-3.057-0.436-4.487-0.436
				c-1.039,0-2.146,0.104-3.29,0.305c-1.183,0.209-2.288,0.525-3.292,0.945c-0.504,0.211-0.967,0.463-1.406,0.734
				c0.134-0.412,0.255-0.832,0.391-1.241c0.118-0.355,0.157-0.733,0.115-1.107c-0.094-0.85-0.399-1.578-0.909-2.17
				c-0.361-0.418-0.785-0.762-1.273-1.028c-0.373-0.2-0.78-0.362-1.208-0.48c-0.07-0.019-0.135-0.04-0.19-0.069
				c-0.363-0.182-0.763-0.277-1.168-0.277c-2.982,0-5.922-0.137-8.736-0.405c-2.979-0.283-6.041-0.427-9.099-0.427
				c-1.071,0-2.032,0.657-2.42,1.654c-0.514,1.318-0.938,2.684-1.259,4.061c-0.297,1.27-0.583,2.535-0.864,3.802
				c-0.194,0.878-0.4,1.757-0.621,2.641c-0.394-0.547-0.786-1.093-1.174-1.635c-0.676-0.946-1.347-1.882-2.016-2.804
				c-0.728-1.004-1.536-1.963-2.399-2.848c-0.322-0.332-0.729-0.571-1.173-0.693c-1.354-0.37-2.771-0.638-4.215-0.796
				c-1.401-0.152-2.836-0.229-4.267-0.229c-3.09,0-6.087,0.298-8.907,0.887c-0.768,0.161-1.422,0.659-1.781,1.358
				c-1.084,2.118-2.145,4.426-3.152,6.863c-0.318,0.771-0.649,1.539-0.995,2.304c-0.289-0.943-0.541-1.902-0.753-2.864
				c-0.314-1.424-0.634-2.846-0.965-4.269c-0.388-1.664-1.031-3.272-1.916-4.784c-0.189-0.324-0.448-0.605-0.758-0.82
				c-0.845-0.588-1.741-0.982-2.673-1.171c-0.749-0.151-1.546-0.227-2.367-0.227c-0.897,0-1.849,0.045-2.827,0.137
				c-0.814,0.076-1.586,0.113-2.295,0.113c-0.817,0-1.697-0.037-2.621-0.116c-1.072-0.089-2.117-0.134-3.104-0.134
				c-0.609,0-1.21,0.043-1.79,0.129c-0.823,0.125-1.579,0.414-2.248,0.859c-0.841,0.56-1.28,1.558-1.128,2.555
				c0.633,4.137,1.496,8.313,2.564,12.409c1.056,4.046,2.23,8.143,3.49,12.177c1.246,3.989,2.544,8.045,3.858,12.055
				c1.292,3.945,2.522,7.945,3.655,11.89c0.159,0.559,0.502,1.047,0.973,1.388c1.4,1.014,3.008,1.695,4.784,2.028
				c1.552,0.288,3.163,0.434,4.785,0.434c1.057,0,2.086-0.026,3.09-0.08c0.977-0.052,1.93-0.111,2.857-0.182
				c0.93-0.069,1.75-0.633,2.15-1.475c1.363-2.871,2.977-5.563,4.792-7.998c1.137-1.523,2.292-3.034,3.452-4.517
				c0.178,0.271,0.359,0.541,0.544,0.809c0.891,1.285,1.829,2.59,2.792,3.874c0.923,1.231,1.818,2.45,2.68,3.649
				c0.805,1.123,1.498,2.233,2.063,3.3c0.287,0.543,0.757,0.967,1.328,1.194c1.37,0.55,2.801,0.93,4.246,1.133
				c1.366,0.194,2.765,0.292,4.16,0.292c1.052,0,2.123-0.046,3.186-0.136c1.001-0.086,1.977-0.182,2.918-0.283
				c0.291-0.03,0.577-0.111,0.842-0.238c1.23-0.586,1.792-1.46,2.054-2.102c0-0.001,0.03-0.068,0.136-0.195
				c0.124-0.15,0.231-0.313,0.319-0.486c1.886-3.716,3.546-7.622,4.933-11.612c1.354-3.906,2.62-7.896,3.763-11.863
				c0.453-1.574,0.898-3.163,1.341-4.753c0.019,0.433,0.014,0.874,0.039,1.303c0.081,1.353,0.122,2.836,0.122,4.41v15.615
				c0,1.304,0.578,2.475,1.632,3.299c0.682,0.529,1.484,0.933,2.38,1.194c0.772,0.231,1.606,0.38,2.49,0.444
				c0.756,0.054,1.453,0.08,2.1,0.08c2.684,0,5.38-0.145,8.011-0.432c2.426-0.263,4.883-0.393,7.308-0.396
				c0.263,0.568,0.599,1.067,0.988,1.473c0.688,0.723,1.615,1.121,2.611,1.121c1.532,0,3.069-0.066,4.567-0.198
				c1.46-0.128,2.918-0.269,4.382-0.42c1.431-0.15,2.854-0.289,4.273-0.412c1.346-0.119,2.72-0.18,4.083-0.18
				c1.182,0,2.19-0.476,2.826-1.308c0.705,0.744,1.665,1.155,2.749,1.155c0.085,0,0.17-0.004,0.255-0.013
				c2.29-0.225,4.622-0.356,6.932-0.391c2.386-0.033,4.758-0.051,7.115-0.051c0.364,0,0.708-0.068,1.037-0.177
				c0.764,0.875,1.688,1.638,2.764,2.253c1.095,0.63,2.318,1.128,3.638,1.481c1.316,0.352,2.623,0.528,3.888,0.528
				c1.084,0,2.176-0.143,3.239-0.423c1.155-0.301,2.207-0.776,3.129-1.417c0.987-0.69,1.798-1.597,2.415-2.703
				c0.631-1.145,0.952-2.477,0.952-3.957c0-1.485-0.505-2.84-1.465-3.921c-0.127-0.143-0.259-0.281-0.395-0.415
				c0.573-0.14,1.134-0.398,1.675-0.771c0.653-0.446,1.741-1.492,1.774-3.523c0.161-2.471,0.484-4.972,0.963-7.432
				c0.509-2.614,1.05-5.192,1.609-7.666c0.584-2.574,1.153-5.146,1.709-7.719c0.569-2.628,1-5.325,1.282-8.011
				c0.009-0.089,0.014-0.18,0.014-0.27C340.393,216.525,340.197,215.605,339.813,214.742z M250.551,228.197
				c-0.552,0.167-1.043,0.423-1.497,0.72c0.066-0.248,0.138-0.499,0.203-0.748c0.223-0.84,0.474-1.673,0.707-2.511
				c0.24,0.459,0.519,0.902,0.875,1.306c0.297,0.338,0.622,0.654,0.977,0.954C251.379,227.978,250.957,228.072,250.551,228.197z
				 M271.928,228.607c-0.006,0.084-0.014,0.17-0.021,0.257c-0.071-0.02-0.141-0.058-0.212-0.075
				C271.779,228.733,271.847,228.665,271.928,228.607z M295.001,255.003c-0.11-0.555-0.166-1.091-0.166-1.607
				c0-0.076,0.001-0.148,0.004-0.217c0.115,0.39,0.174,0.857,0.174,1.401C295.013,254.722,295.009,254.863,295.001,255.003z"/>
		</g>
		<g>
			<path style="fill:#FFDD00;" d="M38.725,243.736c-3.33-2.355-6.694-4.635-10.092-6.836c-3.396-2.205-6.726-4.592-9.988-7.165
				l-0.43-0.429c0.202-1.262,0.572-2.464,1.11-3.608c0.538-1.143,1.152-2.239,1.842-3.291c0.688-1.052,1.421-2.089,2.194-3.115
				c0.774-1.026,1.505-2.094,2.195-3.204c0.303-0.201,0.646-0.303,1.033-0.303c0.303,0,0.58,0.068,0.833,0.203
				c1.782,0.891,3.485,1.895,5.108,3.014c1.623,1.118,3.216,2.283,4.779,3.494c1.564,1.211,3.12,2.426,4.668,3.643
				c1.546,1.22,3.135,2.385,4.767,3.495c1.649-3.078,3.548-5.924,5.701-8.539c2.152-2.614,4.33-5.268,6.533-7.959
				c0.202-0.235,0.479-0.352,0.833-0.352c0.521,0,0.967,0.21,1.336,0.63c1.178,0.64,2.262,1.374,3.254,2.206
				c0.992,0.834,1.955,1.704,2.889,2.611c0.934,0.908,1.858,1.846,2.775,2.813c0.916,0.968,1.854,1.896,2.813,2.787
				c-0.236,0.623-0.425,1.263-0.568,1.917c-0.143,0.657-0.349,1.296-0.617,1.918c-4.727,7.063-9.414,14.146-14.063,21.252
				c-4.65,7.105-9.455,14.054-14.416,20.85c-0.337,0.334-0.715,0.505-1.136,0.505c-0.235,0-0.387-0.018-0.453-0.051
				c-2.103-0.894-4.146-1.84-6.131-2.839c-1.983-0.999-3.918-2.174-5.801-3.519c-0.236-0.134-0.459-0.286-0.669-0.454
				c-0.21-0.17-0.315-0.395-0.315-0.682c0-0.168,0.018-0.27,0.051-0.303c1.059-1.38,2.021-2.833,2.889-4.362
				c0.865-1.532,1.677-3.1,2.434-4.706c0.758-1.606,1.505-3.215,2.246-4.831C37.066,246.913,37.865,245.316,38.725,243.736z"/>
			<path style="fill:#FFDD00;" d="M103.931,242.021c0,2.133-0.327,4.211-0.983,6.229c-0.656,2.017-1.674,3.825-3.053,5.423
				s-3.111,2.881-5.195,3.848c-2.086,0.967-4.559,1.451-7.417,1.451c-2.993,0-5.681-0.51-8.06-1.527
				c-2.38-1.018-4.393-2.379-6.041-4.087c-1.648-1.705-2.914-3.669-3.797-5.891c-0.883-2.22-1.324-4.549-1.324-6.986
				c0-2.102,0.404-4.145,1.211-6.131c0.807-1.983,1.963-3.749,3.469-5.296c1.504-1.548,3.287-2.796,5.348-3.747
				c2.06-0.948,4.367-1.425,6.924-1.425c2.994,0,5.663,0.491,8.01,1.476c2.346,0.984,4.326,2.313,5.939,3.985
				c1.615,1.674,2.847,3.604,3.696,5.789C103.506,237.32,103.931,239.615,103.931,242.021z M82.843,230.768
				c-0.69,0-1.413,0.102-2.169,0.304c-0.758,0.201-1.447,0.501-2.069,0.895c-0.622,0.396-1.131,0.87-1.526,1.426
				c-0.395,0.554-0.592,1.177-0.592,1.865c0,0.624,0.164,1.166,0.492,1.629c0.327,0.461,0.747,0.839,1.261,1.134
				c0.513,0.294,1.071,0.518,1.677,0.669c0.605,0.151,1.202,0.227,1.791,0.227c0.656,0,1.329-0.101,2.019-0.302
				c0.688-0.203,1.315-0.5,1.88-0.896c0.563-0.396,1.017-0.888,1.361-1.477c0.345-0.589,0.518-1.261,0.518-2.018
				c0-0.623-0.147-1.148-0.441-1.577c-0.295-0.429-0.674-0.781-1.136-1.061c-0.463-0.276-0.967-0.482-1.514-0.616
				C83.848,230.837,83.33,230.768,82.843,230.768z"/>
			<path style="fill:#FFDD00;" d="M134.983,259.474c-0.908,0-1.8-0.022-2.674-0.073c-0.874-0.051-1.758-0.16-2.649-0.33
				c-0.453-0.2-0.739-0.507-0.857-0.921c-0.118-0.411-0.177-0.859-0.177-1.35c0-0.284,0.008-0.553,0.025-0.807
				c0.016-0.251,0.025-0.505,0.025-0.756c-1.447,1.563-2.926,2.669-4.439,3.315c-1.515,0.649-3.103,0.972-4.768,0.972
				c-2.137,0-4.117-0.525-5.941-1.575c-1.824-1.05-3.426-2.45-4.805-4.201c-1.379-1.749-2.457-3.753-3.229-6.015
				c-0.773-2.263-1.161-4.597-1.161-7.002c0.135-1.513,0.22-3.046,0.253-4.604c0.034-1.555,0.071-3.105,0.114-4.653
				c0.041-1.546,0.104-3.094,0.188-4.641c0.085-1.548,0.243-3.079,0.479-4.591c0-0.135,0.13-0.231,0.391-0.291
				c0.262-0.059,0.492-0.088,0.694-0.088c1.312,0,2.476,0.017,3.493,0.051c1.018,0.033,2.09,0.05,3.217,0.05
				c0.874,0,1.799-0.017,2.774-0.05c0.976-0.034,2.118-0.102,3.431-0.203c0.387,0.068,0.715,0.282,0.983,0.645
				c0.269,0.36,0.404,0.787,0.404,1.273c-0.69,1.648-1.178,3.161-1.464,4.541c-0.285,1.378-0.429,2.657-0.429,3.834
				c0,1.277,0.155,2.396,0.467,3.355c0.312,0.959,0.724,1.766,1.235,2.423c0.514,0.654,1.106,1.146,1.779,1.475
				c0.672,0.328,1.354,0.492,2.043,0.492c0.724,0,1.446-0.182,2.17-0.543c0.723-0.361,1.365-0.912,1.93-1.652
				c0.563-0.739,1.018-1.66,1.362-2.763c0.345-1.101,0.517-2.408,0.517-3.922c0-1.009-0.092-2.107-0.277-3.292
				c-0.186-1.185-0.488-2.469-0.908-3.846c0.521-0.523,1.262-0.783,2.22-0.783c0.908,0,1.866,0.063,2.876,0.189
				c1.01,0.127,1.967,0.189,2.875,0.189c1.295,0,2.615-0.131,3.961-0.391c1.346-0.26,2.656-0.426,3.936-0.492
				c0.588,0.1,0.958,0.42,1.109,0.959c0.152,0.539,0.227,1.059,0.227,1.563c-0.135,3.026-0.244,5.991-0.327,8.891
				c-0.085,2.902-0.126,5.85-0.126,8.843c0,2.506,0.041,5,0.126,7.478c0.083,2.481,0.228,5.017,0.429,7.606
				c-1.85,0.556-3.742,0.977-5.676,1.261C138.877,259.332,136.934,259.474,134.983,259.474z"/>
			<path style="fill:#E20613;" d="M210.358,248.124c-2.004,2.473-3.967,4.998-5.893,7.58c-1.926,2.582-3.611,5.393-5.057,8.437
				c-0.908,0.069-1.842,0.127-2.8,0.178c-0.959,0.051-1.942,0.076-2.952,0.076c-1.479,0-2.917-0.132-4.313-0.391
				c-1.397-0.261-2.641-0.786-3.733-1.578c-1.145-3.984-2.372-7.98-3.684-11.981c-1.312-4.003-2.595-8.011-3.847-12.02
				c-1.253-4.011-2.405-8.028-3.456-12.057c-1.051-4.028-1.888-8.077-2.51-12.146c0.353-0.235,0.753-0.388,1.198-0.454
				c0.445-0.067,0.912-0.1,1.399-0.1c0.925,0,1.888,0.042,2.889,0.126c1,0.085,1.946,0.125,2.837,0.125
				c0.792,0,1.637-0.04,2.537-0.125c0.897-0.084,1.76-0.126,2.585-0.126c0.655,0,1.273,0.059,1.854,0.177
				c0.58,0.117,1.146,0.369,1.702,0.757c0.758,1.294,1.299,2.648,1.628,4.061c0.328,1.412,0.647,2.824,0.958,4.237
				c0.312,1.413,0.698,2.799,1.161,4.161c0.462,1.362,1.215,2.633,2.258,3.81c1.193-2.27,2.282-4.595,3.267-6.976
				c0.983-2.379,2.004-4.602,3.064-6.671c2.657-0.556,5.448-0.832,8.376-0.832c1.344,0,2.674,0.071,3.984,0.213
				c1.311,0.145,2.583,0.384,3.811,0.721c0.771,0.79,1.491,1.644,2.156,2.56c0.664,0.916,1.331,1.846,2.004,2.787
				c0.675,0.941,1.354,1.888,2.044,2.839c0.69,0.95,1.429,1.836,2.22,2.661c0.52-1.195,0.946-2.423,1.273-3.684
				c0.33-1.261,0.632-2.519,0.908-3.771c0.279-1.252,0.564-2.51,0.857-3.771c0.294-1.26,0.677-2.497,1.149-3.707
				c2.993,0,5.943,0.139,8.853,0.416c2.909,0.277,5.902,0.416,8.982,0.416c0.2,0.102,0.423,0.186,0.667,0.252
				c0.243,0.068,0.467,0.156,0.669,0.266c0.201,0.109,0.381,0.256,0.541,0.441c0.159,0.186,0.256,0.436,0.291,0.756
				c-1.278,3.852-2.442,7.757-3.492,11.717c-1.053,3.962-2.146,7.914-3.28,11.856c-1.137,3.944-2.377,7.853-3.721,11.729
				c-1.348,3.878-2.942,7.642-4.795,11.29c-0.251,0.302-0.436,0.601-0.553,0.895c-0.119,0.295-0.37,0.535-0.759,0.721
				c-0.923,0.099-1.879,0.193-2.86,0.276c-0.984,0.084-1.974,0.127-2.966,0.127c-1.278,0-2.544-0.089-3.795-0.267
				c-1.253-0.175-2.468-0.499-3.645-0.971c-0.624-1.178-1.373-2.375-2.245-3.595c-0.875-1.218-1.781-2.45-2.715-3.696
				c-0.931-1.242-1.844-2.509-2.734-3.796C211.786,250.785,211.013,249.468,210.358,248.124z"/>
			<path style="fill:#E20613;" d="M256.065,259.071c-0.591,0-1.227-0.025-1.918-0.073c-0.69-0.051-1.334-0.165-1.931-0.343
				c-0.596-0.175-1.105-0.429-1.526-0.756c-0.419-0.327-0.629-0.743-0.629-1.248v-15.615c0-1.648-0.044-3.17-0.127-4.566
				c-0.084-1.395-0.127-2.816-0.127-4.263c0-0.421,0.147-0.748,0.441-0.984c0.294-0.234,0.646-0.416,1.061-0.542
				c0.41-0.125,0.85-0.206,1.311-0.239c0.462-0.032,0.889-0.051,1.273-0.051c1.751,0,3.331,0.046,4.744,0.14
				c1.413,0.092,2.757,0.189,4.035,0.289c1.278,0.102,2.534,0.193,3.772,0.278c1.235,0.085,2.56,0.125,3.972,0.125
				c0.386,0,0.795,0.098,1.223,0.291c0.429,0.194,0.645,0.56,0.645,1.097c0,1.212,0.114,2.418,0.34,3.62
				c0.229,1.202,0.34,2.442,0.34,3.721c0,2.59-0.111,5.168-0.34,7.732c-0.226,2.564-0.34,5.098-0.34,7.605
				c-0.068,0.251-0.119,0.54-0.152,0.87c-0.032,0.327-0.065,0.646-0.102,0.959c-0.032,0.31-0.091,0.576-0.175,0.794
				c-0.083,0.218-0.203,0.327-0.353,0.327c-2.574,0-5.145,0.14-7.706,0.416C261.229,258.934,258.652,259.071,256.065,259.071z
				 M251.826,222.747c0-0.757,0.277-1.4,0.832-1.93c0.556-0.531,1.246-0.967,2.067-1.313c0.825-0.344,1.738-0.605,2.737-0.781
				c1.002-0.177,1.948-0.266,2.839-0.266c1.278,0,2.615,0.132,4.01,0.392c1.398,0.261,2.664,0.623,3.798,1.085
				c1.136,0.463,2.072,1.039,2.813,1.727c0.738,0.69,1.108,1.464,1.108,2.321c0,0.758-0.309,1.422-0.933,1.994
				c-0.622,0.57-1.408,1.046-2.356,1.424c-0.952,0.38-1.994,0.665-3.128,0.859c-1.137,0.192-2.199,0.289-3.191,0.289
				c-1.245,0-2.493-0.122-3.746-0.365c-1.253-0.244-2.39-0.614-3.407-1.111c-1.017-0.495-1.844-1.104-2.483-1.829
				C252.146,224.521,251.826,223.689,251.826,222.747z"/>
			<path style="fill:#E20613;" d="M294.457,249.914c-0.723,0-1.273,0.32-1.651,0.959c-0.378,0.64-0.568,1.479-0.568,2.522
				c0,1.581,0.378,3.245,1.137,4.995c-0.036,0.319-0.122,0.606-0.267,0.857c-0.142,0.251-0.416,0.378-0.819,0.378
				c-1.446,0-2.884,0.064-4.313,0.19c-1.431,0.124-2.868,0.264-4.314,0.416c-1.446,0.149-2.892,0.289-4.338,0.416
				c-1.448,0.126-2.894,0.188-4.34,0.188c-0.287,0-0.53-0.104-0.73-0.314c-0.203-0.211-0.376-0.472-0.517-0.781
				c-0.142-0.313-0.238-0.647-0.289-1.01c-0.051-0.36-0.076-0.692-0.076-0.997c0-3.346,0.129-6.68,0.391-10
				c0.262-3.321,0.391-6.707,0.391-10.154c0-1.076,0.025-2.347,0.076-3.809c0.051-1.463,0.127-2.863,0.226-4.2
				c0.102-1.336,0.23-2.481,0.394-3.432c0.157-0.948,0.34-1.44,0.54-1.475c2.372-0.304,4.713-0.525,7.026-0.669
				c2.311-0.143,4.654-0.231,7.023-0.264c0.959,0,1.57,0.285,1.829,0.857c0.262,0.57,0.394,1.202,0.394,1.891
				c0,0.337-0.011,0.669-0.025,0.997c-0.018,0.329-0.025,0.627-0.025,0.895c1.445-0.858,2.823-1.483,4.137-1.88
				c1.312-0.394,2.588-0.592,3.833-0.592c2.892,0,5.251,0.63,7.077,1.893c1.824,1.261,3.263,3.06,4.313,5.398
				c1.05,2.338,1.773,5.167,2.169,8.487c0.396,3.323,0.594,7.067,0.594,11.237c0,0.656-0.025,1.338-0.076,2.043
				c-0.051,0.708-0.13,1.362-0.238,1.969c-0.112,0.606-0.267,1.106-0.467,1.502c-0.203,0.396-0.465,0.591-0.784,0.591
				c-2.369,0-4.754,0.018-7.15,0.051c-2.398,0.035-4.779,0.17-7.151,0.403c-0.486,0-0.85-0.218-1.085-0.654
				c0.555-1.413,0.832-2.826,0.832-4.239c0-1.344-0.27-2.459-0.807-3.342C296.266,250.356,295.484,249.914,294.457,249.914z"/>
			<path style="fill:#E20613;" d="M330.629,257.204c0,1.045-0.21,1.943-0.629,2.702c-0.421,0.756-0.964,1.364-1.629,1.828
				c-0.664,0.462-1.428,0.807-2.295,1.033c-0.865,0.228-1.728,0.34-2.585,0.34c-1.043,0-2.116-0.147-3.217-0.441
				c-1.101-0.295-2.105-0.7-3.014-1.223c-0.908-0.521-1.666-1.152-2.27-1.893c-0.606-0.738-0.908-1.555-0.908-2.445
				c0-0.791,0.269-1.481,0.807-2.07c0.537-0.588,1.21-1.07,2.018-1.45c0.807-0.378,1.692-0.658,2.661-0.844
				c0.967-0.186,1.895-0.279,2.788-0.279c0.858,0,1.778,0.087,2.762,0.254c0.982,0.167,1.878,0.44,2.686,0.82
				c0.807,0.378,1.479,0.87,2.017,1.474C330.36,255.616,330.629,256.346,330.629,257.204z M335.624,215.003
				c0.977,0,1.58,0.264,1.816,0.794c0.236,0.53,0.355,1.089,0.355,1.679c-0.271,2.59-0.683,5.166-1.238,7.73
				c-0.553,2.565-1.121,5.13-1.701,7.694c-0.581,2.564-1.122,5.145-1.626,7.744c-0.505,2.599-0.843,5.209-1.01,7.832
				c0,0.69-0.216,1.182-0.645,1.476c-0.429,0.295-0.837,0.441-1.223,0.441c-1.126-0.203-2.278-0.34-3.455-0.416
				c-1.18-0.076-2.352-0.146-3.52-0.215c-1.17-0.066-2.329-0.176-3.48-0.328c-1.151-0.151-2.283-0.436-3.394-0.857
				c-0.233-0.065-0.393-0.307-0.478-0.718c-0.086-0.413-0.127-0.812-0.127-1.199c0.403-2.674,0.762-5.373,1.071-8.097
				c0.312-2.725,0.639-5.444,0.983-8.161c0.346-2.715,0.733-5.428,1.162-8.134c0.429-2.709,0.972-5.391,1.626-8.048
				c0.068-0.337,0.241-0.669,0.518-0.996c0.276-0.328,0.627-0.491,1.048-0.491c2.067,0.486,4.236,0.89,6.506,1.209
				C331.083,214.263,333.353,214.617,335.624,215.003z"/>
		</g>
		<path style="fill:#FFFFFF;" d="M40.496,237.37c-5.613-4.33-10.857-9.274-16.703-13.282c-0.597-0.408-1.902,1.413-1.326,1.857
			c5.533,4.26,10.1,10.624,16.631,13.384C39.796,239.624,41.12,237.851,40.496,237.37z"/>
		<path style="fill:#FFFFFF;" d="M42.559,243.208c-1.801,2.878-3.811,5.546-5.49,8.51c-1.394,2.458-3.252,5.222-3.664,8.061
			c-0.275,1.906,1.801-0.09,2.148-0.651c1.619-2.616,2.754-5.559,4.231-8.271c1.377-2.527,2.974-5.082,3.924-7.804
			C44.135,241.829,42.866,242.717,42.559,243.208z"/>
		<path style="fill:#FFFFFF;" d="M32.927,261.714c-0.818,0-1.968,2.188-1.188,2.188C32.558,263.902,33.707,261.714,32.927,261.714z"
			/>
		<path style="fill:#FFFFFF;" d="M78.268,249.155c-5.806-4.662-9.307-11.805-3.816-18.44c0.278-0.337,0.549-1.517-0.172-0.862
			c-3.057,2.777-4.777,5.717-4.956,9.91c-0.196,4.611,2.459,10.505,7.001,12.113C77.297,252.22,79.148,249.861,78.268,249.155z"/>
		<path style="fill:#FFFFFF;" d="M81.035,251.321c-1.019,0-2.448,2.723-1.477,2.723C80.576,254.043,82.006,251.321,81.035,251.321z"
			/>
		<path style="fill:#FFFFFF;" d="M112.483,249.987c-7.024-6.578-4.735-16.281-4.216-24.863c0.034-0.558-0.882,0.37-0.932,0.661
			c-1.238,7.337-4.949,21.91,3.44,26.593C111.604,252.839,113.173,250.632,112.483,249.987z"/>
		<path style="fill:#FFFFFF;" d="M115.629,252.288c-0.918,0-2.207,2.455-1.332,2.455
			C115.216,254.744,116.506,252.288,115.629,252.288z"/>
		<path style="fill:#FFFFFF;" d="M191.305,253.343c-1.802-5.981-4.36-11.777-6.494-17.65c-2.33-6.412-4.313-12.961-7.146-19.175
			c-0.228-0.499-1.236,0.707-1.068,1.162c4.575,12.379,7.002,25.785,12.859,37.675C189.901,256.261,191.528,254.088,191.305,253.343
			z"/>
		<path style="fill:#FFFFFF;" d="M192.351,257.482c-0.649,0-1.561,1.734-0.941,1.734
			C192.059,259.216,192.97,257.482,192.351,257.482z"/>
		<path style="fill:#FFFFFF;" d="M253.446,232.043c-0.099-0.7-0.999,0.528-1.029,0.857c-0.297,3.29-0.033,6.551,0.053,9.845
			c0.081,3.074-0.143,6.26,0.715,9.238c0.241,0.838,1.65-1.121,1.658-1.588C254.947,244.309,254.295,238.067,253.446,232.043z"/>
		<path style="fill:#FFFFFF;" d="M254.702,254.031c-0.729,0-1.752,1.947-1.057,1.947
			C254.374,255.978,255.398,254.031,254.702,254.031z"/>
		<path style="fill:#FFFFFF;" d="M259.296,219.469c-0.703-0.092-1.398,0.289-2.006,0.596c-0.73,0.369-1.385,0.909-1.969,1.475
			c-0.249,0.241-1.182,1.699-0.365,1.816c0.408,0.06,0.878-0.107,1.265-0.236c0.515-0.171,1.043-0.23,1.561-0.378
			c0.7-0.199,1.269-0.944,1.597-1.55C259.59,220.804,260.103,219.576,259.296,219.469z"/>
		<path style="fill:#FFFFFF;" d="M279.934,226.679c-0.116-1.058-1.578,0.784-1.607,1.34c-0.483,9.068-2.525,18.557-2.009,27.618
			c0.082,1.451,2.174-0.937,2.265-1.609C279.764,245.261,280.899,235.493,279.934,226.679z"/>
		<path style="fill:#FFFFFF;" d="M278.579,256.855c-0.619,0-1.488,1.654-0.898,1.654C278.3,258.509,279.169,256.855,278.579,256.855
			z"/>
		<path style="fill:#FFFFFF;" d="M325.256,215.356c-0.04-0.996-1.502,0.644-1.566,1.112c-1.187,8.708-4.143,17.755-4.373,26.503
			c-0.039,1.489,2.117-1.072,2.265-1.609C323.809,233.255,325.595,223.799,325.256,215.356z"/>
		<path style="fill:#FFFFFF;" d="M320.766,245.125c-0.078-0.046-0.155-0.093-0.233-0.14c-0.518-0.311-1.188,0.638-1.376,0.986
			c-0.14,0.257-0.475,1.363,0.238,1.1c0.13-0.048,0.259-0.096,0.388-0.144c0.4-0.147,0.703-0.51,0.901-0.874
			C320.786,245.866,321.052,245.297,320.766,245.125z"/>
		<path style="fill:#FFFFFF;" d="M322.521,258.295c-0.922-0.245-1.889-0.213-2.795-0.531c-0.852-0.3-1.609-0.846-2.154-1.563
			c-0.311-0.411-1.008,0.613-0.883,0.961c0.35,0.977,0.875,1.832,1.846,2.271c1.071,0.484,2.199,0.51,3.328,0.286
			C322.228,259.647,323.131,258.457,322.521,258.295z"/>
	</g>
</g>
</svg>
