<svg xmlns="http://www.w3.org/2000/svg">
    <symbol id="car-icon">
    <g class="car-icon">
      <path class="car-wheel" d="M183.6,159.4c-9.9,0-17.9,8-17.9,17.9c0,9.9,8,17.9,17.9,17.9c9.9,0,17.9-8,17.9-17.9C201.5,167.4,193.5,159.4,183.6,159.4z M183.6,190.4c-7.2,0-13.1-5.9-13.1-13.1c0-7.2,5.9-13.1,13.1-13.1c7.2,0,13.1,5.9,13.1,13.1C196.7,184.5,190.9,190.4,183.6,190.4z"/>
      <path class="car-wheel" d="M71.2,159.4c-9.9,0-17.9,8-17.9,17.9c0,9.9,8,17.9,17.9,17.9c9.9,0,17.9-8,17.9-17.9C89.1,167.4,81,159.4,71.2,159.4z M71.2,190.4c-7.2,0-13.1-5.9-13.1-13.1c0-7.2,5.9-13.1,13.1-13.1c7.2,0,13.1,5.9,13.1,13.1C84.2,184.5,78.4,190.4,71.2,190.4z"/>
      <path class="car-body" d="M245.8,164.6l-14.4-34.1c-0.3-5.9-5.1-10.5-11.1-10.5h-36.8c-1.3-7.2-5.2-15.2-8.5-21.5c-0.5-1-1-1.9-1.4-2.8c-3.6-7.2-9.5-17.5-18.7-24.6c-12.5-9.6-30.5-9.9-44.9-10.1l-2,0c-1.9,0-3.9-0.1-5.8-0.1c-8.4,0-17.2,0.6-25.5,4.4c-15.3,7-23.8,26-24.5,54.9H33.9c-5.9,0-10.8,4.7-11,10.5l-12.8,34.2c-0.1,0.3-0.1,0.5-0.1,0.8c0,6.1,5,11,11.1,11h24.4h0c1.3,0,2.4-1,2.4-2.4c0-0.1,0-0.3,0-0.4c0,0,0-0.1,0-0.1c0,0,0-0.1,0-0.2c0-12.5,10.1-22.6,22.6-22.6c12.4,0,22.6,10.1,22.6,22.6c0,0.1,0,0.2,0,0.3l0,0.3c0,0.7,0.2,1.3,0.7,1.7c0.5,0.5,1.1,0.7,1.7,0.7H159h0c1.3,0,2.4-1,2.4-2.4c0-0.2,0-0.3,0-0.5c0-0.1,0-0.1,0-0.2c0-12.5,10.1-22.6,22.6-22.6c12.4,0,22.6,10.1,22.6,22.6v0.2c0,0.2,0,0.3,0,0.5c0,1.3,1.1,2.4,2.4,2.4h26c6.1,0,11.1-4.9,11.1-11C246,165.2,245.9,164.9,245.8,164.6z M234.9,171.8h-23.6c-0.9-14.4-12.8-25.8-27.4-25.8c-14.5,0-26.5,11.3-27.4,25.8H97.7C96.8,157.3,84.9,146,70.3,146c-14.5,0-26.5,11.3-27.4,25.8H21c-3.3,0-6-2.6-6.2-5.8l12.7-34.1c0.1-0.3,0.1-0.5,0.1-0.8c0-3.4,2.8-6.2,6.2-6.2h20.4c1.3,0,2.4-1.1,2.4-2.4C57,102.7,61,77.6,78.5,69.6c7.4-3.4,15.7-3.9,23.5-3.9c1.9,0,3.9,0,5.8,0l2,0c14.5,0.2,30.8,0.5,42.1,9.1c8.4,6.5,13.9,16.2,17.3,22.9c0.5,0.9,0.9,1.9,1.4,2.8c3.5,6.9,7.6,14.8,8.3,22c0.1,1.2,1.2,2.2,2.4,2.2h38.9c3.4,0,6.2,2.8,6.2,6.2c0,0.3,0.1,0.6,0.2,0.9l14.4,34C240.9,169.2,238.2,171.8,234.9,171.8z"/>
      <path class="car-details" d="M107,69.5H84.4c-7.9,0-14.2,4.9-18.2,13.9c-1.2,2.6-2.1,5.6-2.9,9.1c-2,8.5-2.3,33.3-2.3,34.4c0,0.7,0.2,1.4,0.7,1.9c0.5,0.5,1.1,0.8,1.7,0.8H107c1.3,0,2.1-1.3,2.1-2.6V72.1C109.1,70.8,108.3,69.5,107,69.5z M104.2,124.8H65.8c0.1-7.2,0.6-24.5,2.2-31c0.7-3.2,1.6-6,2.6-8.4c3.3-7.4,7.8-11.1,13.7-11.1h19.9V124.8L104.2,124.8L104.2,124.8z"/>
      <path class="car-details" d="M172.6,110.4c-1.4-2.5-2.7-5.2-4.2-8c-6.6-13.2-14.2-28.1-30-32.2c-2.7-0.7-5.6-1-9.3-1c-2.4,0-4.8,0.1-7.2,0.3c-2.3,0.1-4.6,0.3-6.7,0.3c-1.3,0-2.5,1.1-2.5,2.4V127c0,1.3,1.3,2.6,2.6,2.6h58.8c0.7,0,1.3-0.4,1.8-1c0.5-0.5,0.7-1.3,0.6-2C176.3,125.4,174.6,114.1,172.6,110.4z M117.5,124.8V74.5c1.2,0,3.1-0.1,4.6-0.2c2.3-0.1,4.7-0.3,6.9-0.3c3.3,0,5.9,0.3,8.1,0.9c13.7,3.6,20.5,16.9,27,29.7c1.4,2.9,2.8,5.7,4.2,8.3c1,1.8,2.2,7.1,2.9,11.9L117.5,124.8L117.5,124.8z"/>
    </g>
  </symbol>
</svg>